<svg width="28" height="31" viewBox="0 0 28 31" fill="none" xmlns="http://www.w3.org/2000/svg">
<g clip-path="url(#clip0)">
<path d="M12.513 15.451L0.616682 7.26206C-0.205561 6.69606 -0.205561 5.78083 0.616682 5.22085L2.59356 3.86005C3.41581 3.29405 4.74539 3.29405 5.55889 3.86005L13.9913 9.66454L22.4236 3.86005C23.2459 3.29405 24.5754 3.29405 25.3889 3.86005L27.3833 5.21483C28.2056 5.78083 28.2056 6.69606 27.3833 7.25604L15.487 15.445C14.6648 16.017 13.3352 16.017 12.513 15.451ZM15.487 27.0118L27.3833 18.8229C28.2056 18.2569 28.2056 17.3417 27.3833 16.7817L25.4064 15.4209C24.5842 14.8549 23.2546 14.8549 22.4411 15.4209L14 21.2193L5.56763 15.4148C4.74539 14.8488 3.41581 14.8488 2.60231 15.4148L0.616682 16.7757C-0.205561 17.3417 -0.205561 18.2569 0.616682 18.8169L12.513 27.0058C13.3352 27.5778 14.6648 27.5778 15.487 27.0118Z" fill="#32E0C4"/>
</g>
<defs>
<clipPath id="clip0">
<rect width="28" height="31" fill="white"/>
</clipPath>
</defs>
</svg>
