<svg width="44" height="44" viewBox="0 0 44 44" fill="none" xmlns="http://www.w3.org/2000/svg">
<g clip-path="url(#clip0)">
<path d="M12.924 27.1756H5.32734C5.68866 25.8156 6.61344 24.66 7.91627 24.0085L10.44 22.7467C11.9721 21.9806 12.9239 20.4407 12.9239 18.7277C12.9239 16.2501 10.9082 14.2344 8.43055 14.2344H7.06439C4.58676 14.2344 2.57104 16.2501 2.57104 18.7277V19.4108H5.15928V18.7277C5.15928 17.6772 6.01392 16.8226 7.06439 16.8226H8.43064C9.48112 16.8226 10.3358 17.6772 10.3358 18.7277C10.3358 19.454 9.93225 20.1069 9.2826 20.4317L6.75881 21.6936C4.17566 22.9852 2.57104 25.5816 2.57104 28.4697V29.7638H12.924V27.1756Z" fill="#EE7743"/>
<path d="M21.9828 20.705H20.1992C19.042 20.705 18.1004 19.7634 18.1004 18.6062V14.2344H15.5122V18.6062C15.5122 21.1906 17.6148 23.2932 20.1992 23.2932H21.9828V29.7638H24.571V14.2344H21.9828V20.705Z" fill="#EE7743"/>
<path d="M36.5904 29.7184L41.4292 14.2344H31.4729V16.8226H37.9087L34.12 28.9464L36.5904 29.7184Z" fill="#EE7743"/>
<path d="M27.1592 20.7051H31.0415V23.2933H27.1592V20.7051Z" fill="#EE7743"/>
<path d="M20.6887 0H23.277V5.17647H20.6887V0Z" fill="#EE7743"/>
<path d="M14.8169 2.83594L17.3171 2.16558L18.211 5.49932L15.7107 6.16967L14.8169 2.83594Z" fill="#EE7743"/>
<path d="M9.43042 5.43555L11.6718 4.14143L13.3974 7.13005L11.156 8.42417L9.43042 5.43555Z" fill="#EE7743"/>
<path d="M4.8999 9.33789L6.72978 7.50801L9.16963 9.94785L7.33975 11.7777L4.8999 9.33789Z" fill="#EE7743"/>
<path d="M25.7625 5.50195L26.6563 2.16822L29.1565 2.83858L28.2627 6.17231L25.7625 5.50195Z" fill="#EE7743"/>
<path d="M30.5676 7.13086L32.2932 4.14223L34.5346 5.43635L32.809 8.42498L30.5676 7.13086Z" fill="#EE7743"/>
<path d="M34.7893 9.94922L37.2292 7.50938L39.059 9.33926L36.6192 11.7791L34.7893 9.94922Z" fill="#EE7743"/>
<path d="M20.6887 38.8242H23.277V44.0007H20.6887V38.8242Z" fill="#EE7743"/>
<path d="M14.821 41.168L15.7149 37.8342L18.2151 38.5046L17.3213 41.8383L14.821 41.168Z" fill="#EE7743"/>
<path d="M9.42969 38.5645L11.1552 35.5758L13.3966 36.8699L11.6711 39.8586L9.42969 38.5645Z" fill="#EE7743"/>
<path d="M4.89722 34.6602L7.33706 32.2203L9.16694 34.0502L6.7271 36.49L4.89722 34.6602Z" fill="#EE7743"/>
<path d="M25.7659 38.4941L28.2661 37.8238L29.1599 41.1575L26.6597 41.8279L25.7659 38.4941Z" fill="#EE7743"/>
<path d="M30.5674 36.8691L32.8088 35.575L34.5343 38.5636L32.2929 39.8578L30.5674 36.8691Z" fill="#EE7743"/>
<path d="M34.7866 34.0527L36.6165 32.2229L39.0564 34.6627L37.2265 36.4926L34.7866 34.0527Z" fill="#EE7743"/>
</g>
<defs>
<clipPath id="clip0">
<rect width="44" height="44" fill="white"/>
</clipPath>
</defs>
</svg>
