<svg width="204" height="204" viewBox="0 0 204 204" fill="none" xmlns="http://www.w3.org/2000/svg">
<path d="M102 189.041C150.071 189.041 189.04 150.072 189.04 102.001C189.04 53.9301 150.071 14.9609 102 14.9609C53.9291 14.9609 14.96 53.9301 14.96 102.001C14.96 150.072 53.9291 189.041 102 189.041Z" fill="#EE7743"/>
<path d="M157.257 111.793C157.257 110.011 156.549 108.302 155.289 107.042C154.029 105.782 152.32 105.074 150.538 105.074C151.476 105.075 152.403 104.879 153.261 104.5C154.119 104.12 154.887 103.566 155.517 102.871C156.148 102.177 156.626 101.358 156.92 100.468C157.215 99.5782 157.321 98.6362 157.23 97.7029C157.019 96.0098 156.19 94.4542 154.902 93.3348C153.614 92.2153 151.959 91.6108 150.253 91.6373H127.01L126.48 88.9173L133.28 81.6005C136.123 78.5707 138.276 74.961 139.59 71.0197C139.831 70.3833 140 69.7218 140.094 69.0477C140.447 61.2821 136.503 57.4877 132.872 57.1885C131.893 57.1069 130.968 56.7941 130.383 57.5829C127.133 66.6949 122.536 72.5429 116.865 75.8613L98.9671 91.8141L82.5247 100.953L81.5183 140.081L100.64 145.385L101.32 145.099V145.385H150.28C151.986 145.411 153.642 144.807 154.929 143.687C156.217 142.568 157.046 141.012 157.257 139.319C157.352 138.381 157.249 137.434 156.955 136.539C156.66 135.643 156.18 134.82 155.547 134.122C154.913 133.425 154.14 132.868 153.277 132.489C152.414 132.109 151.481 131.916 150.538 131.921C152.32 131.921 154.029 131.213 155.289 129.953C156.549 128.693 157.257 126.984 157.257 125.202C157.257 123.42 156.549 121.711 155.289 120.452C154.029 119.192 152.32 118.484 150.538 118.484C152.315 118.484 154.02 117.78 155.279 116.526C156.539 115.272 157.25 113.57 157.257 111.793Z" fill="#FCD462"/>
<path d="M46.7432 93.9609H90.9296V147.015H46.7432V93.9609Z" fill="#32E0C4"/>
</svg>
