<svg width="204" height="204" viewBox="0 0 204 204" fill="none" xmlns="http://www.w3.org/2000/svg">
<path d="M102 189.041C150.071 189.041 189.04 150.072 189.04 102.001C189.04 53.9301 150.071 14.9609 102 14.9609C53.9291 14.9609 14.96 53.9301 14.96 102.001C14.96 150.072 53.9291 189.041 102 189.041Z" fill="#EE7743"/>
<path d="M94.9143 138.409V113.358L94.3023 113.086V100.18L83.8847 105.334L73.4671 100.18V113.086L73.3447 113.14V138.409H94.9143Z" fill="#F7BE56"/>
<path d="M118.946 130.479C118.741 128.42 117.991 126.453 116.775 124.78C115.558 123.107 113.918 121.788 112.023 120.959L94.3434 113.125V110.895L83.9258 120.306L73.4402 110.895V113.084L55.7602 120.918C53.8686 121.752 52.2317 123.073 51.0158 124.745C49.7999 126.417 49.0485 128.381 48.8378 130.438L47.0562 148.703H120.768L118.946 130.479Z" fill="#32E0C4"/>
<path d="M102.313 83.9812C100.953 82.9204 99.7832 85.1508 99.1576 86.6196L97.92 69.3612L91.596 66.342L84.0208 65.6484H83.8304L76.16 66.342L69.8768 69.3612L68.7208 85.0828C68.068 84.0492 67.2384 83.2604 66.3408 83.9812C64.4232 85.518 66.8576 90.4004 68.1224 92.1412C69.3872 93.882 68.408 96.534 70.5976 95.378L72.9232 102.436C73.3575 103.768 74.1761 104.942 75.276 105.809L78.5536 108.393C79.8083 109.386 81.3603 109.927 82.96 109.93H85.204C86.8657 109.93 88.4759 109.353 89.76 108.298L92.7656 105.823C93.8441 104.938 94.6387 103.756 95.0504 102.423L97.376 94.97C100.422 97.0372 99.2256 93.8548 100.504 92.1276C101.782 90.4004 104.23 85.518 102.313 83.9812Z" fill="#FCD462"/>
<path d="M98.7088 90.3464H99.7424C99.7424 90.3464 100.64 76.4336 100.259 72.0816C99.8784 67.7296 96.1792 68.2328 96.1792 68.2328C96.1792 68.2328 96.3832 62.7928 90.1 62.1808C83.8168 61.5688 72.42 61.8816 69.5776 69.6336C66.7352 77.3856 68.952 90.3872 68.952 90.3872L70.1352 90.2376C70.1352 90.2376 70.72 75.5088 71.6992 74.3936C72.6784 73.2784 78.9344 72.4488 83.6128 72.8568C88.2912 73.2648 93.1328 71.4968 95.0096 73.8768C96.8864 76.2568 98.3008 84.3896 98.4096 85.6136C98.5184 86.8376 98.7088 90.3464 98.7088 90.3464Z" fill="#222831"/>
<path d="M86.6455 117.057L84.0071 119.722H83.7623L81.0967 117.043L79.6279 118.077L81.6679 120.103V148.745H83.5175H83.7623H84.0071H84.4423H86.1015V120.103L88.1279 118.077L86.6455 117.057Z" fill="white"/>
<path d="M73.4673 108.988L81.1241 117.053L77.8465 125.471L71.1689 114.088L73.4673 108.988Z" fill="white"/>
<path d="M94.3023 108.988L86.6455 117.053L89.9095 125.471L96.5871 114.088L94.3023 108.988Z" fill="white"/>
<path d="M66.9663 82.172C66.9663 82.172 84.1567 78.228 101.782 82.3624V81.288L93.9487 78.8808L84.4287 77.7656L77.6287 78.364L70.7199 80.064L66.9663 82.172Z" fill="#32E0C4"/>
<path d="M99.3618 62.6298C99.2551 61.788 98.9105 60.9942 98.3685 60.3414C97.8265 59.6885 97.1095 59.2039 96.3018 58.9442L85.4218 55.4762C84.5377 55.1902 83.5859 55.1902 82.7018 55.4762L71.9442 58.9442C71.1484 59.201 70.4407 59.6763 69.9021 60.316C69.3634 60.9556 69.0154 61.7338 68.8978 62.5618L66.4634 81.289C77.8507 76.9499 90.4361 76.9499 101.823 81.289L99.3618 62.6298Z" fill="#32E0C4"/>
<path d="M101.782 82.3617C90.4181 77.8996 77.7869 77.8996 66.4225 82.3617C66.1858 82.4523 65.9232 82.4478 65.6899 82.3488C65.4566 82.2499 65.2707 82.0644 65.1713 81.8312C65.1226 81.7116 65.0981 81.5836 65.0992 81.4545C65.1002 81.3253 65.1267 81.1977 65.1773 81.0789C65.2279 80.96 65.3014 80.8524 65.3938 80.7621C65.4861 80.6718 65.5954 80.6007 65.7153 80.5528C77.5198 75.9355 90.6307 75.9355 102.435 80.5528C102.556 80.5992 102.667 80.6695 102.76 80.7594C102.854 80.8494 102.928 80.9573 102.979 81.0766C103.029 81.1959 103.056 81.3242 103.056 81.4538C103.056 81.5835 103.03 81.7119 102.979 81.8312C102.88 82.0518 102.703 82.2279 102.483 82.3258C102.262 82.4237 102.012 82.4365 101.782 82.3617Z" fill="#B7FEF3"/>
<path d="M132.736 65.6211C119.354 65.6211 108.501 75.5355 108.501 87.7755C108.521 90.6453 109.126 93.4809 110.279 96.1092C111.432 98.7374 113.108 101.103 115.206 103.062L108.501 115.302L121.407 107.387C124.942 109.085 128.815 109.964 132.736 109.957C146.119 109.957 156.971 100.043 156.971 87.8027C156.971 75.5627 146.119 65.6211 132.736 65.6211Z" fill="#222831"/>
<path d="M132.736 75.2891C130.473 75.2927 128.304 76.1941 126.705 77.7954C125.107 79.3967 124.209 81.5671 124.209 83.8299C124.209 88.5355 132.736 100.15 132.736 100.259C132.736 100.367 141.263 88.5355 141.263 83.8299C141.263 81.5671 140.365 79.3967 138.766 77.7954C137.168 76.1941 134.999 75.2927 132.736 75.2891Z" fill="#EE7743"/>
<path d="M132.736 77.711C131.574 77.711 130.438 78.0555 129.472 78.7011C128.506 79.3467 127.753 80.2643 127.308 81.3378C126.863 82.4114 126.747 83.5927 126.974 84.7324C127.2 85.872 127.76 86.9189 128.582 87.7406C129.403 88.5622 130.45 89.1218 131.59 89.3485C132.73 89.5752 133.911 89.4588 134.984 89.0141C136.058 88.5694 136.976 87.8164 137.621 86.8502C138.267 85.8841 138.611 84.7482 138.611 83.5862C138.613 82.8141 138.462 82.0493 138.168 81.3357C137.873 80.6221 137.44 79.9737 136.894 79.4278C136.349 78.8818 135.7 78.4491 134.987 78.1545C134.273 77.8599 133.508 77.7092 132.736 77.711Z" fill="white"/>
</svg>
