<svg width="204" height="204" viewBox="0 0 204 204" fill="none" xmlns="http://www.w3.org/2000/svg">
<path d="M102 189.041C150.071 189.041 189.04 150.072 189.04 102.001C189.04 53.9301 150.071 14.9609 102 14.9609C53.9291 14.9609 14.96 53.9301 14.96 102.001C14.96 150.072 53.9291 189.041 102 189.041Z" fill="#EE7743"/>
<path d="M113.927 113.914C95.6489 132.192 62.2473 160.616 52.7953 151.205C43.3433 141.794 71.8353 108.351 90.0729 90.0729C108.311 71.7945 141.753 43.3841 151.273 52.7953C160.793 62.2065 132.192 95.6489 113.927 113.914ZM94.6697 94.6697C66.9257 122.4 55.6785 143.276 57.4329 146.676C60.7241 148.322 81.5865 137.075 109.331 109.331C136.871 81.8041 148.145 61.0369 146.608 57.3921C142.963 55.8553 122.196 67.1297 94.6697 94.6697Z" fill="#222831"/>
<path d="M149.491 75.8183C147.002 73.0983 144.541 70.3783 142.147 67.6583C141.534 66.9736 141.216 66.074 141.263 65.1559C137.917 62.2412 134.377 59.5559 130.669 57.1183C125.12 53.5279 118.32 51.6783 111.873 50.4815C103.836 49.0127 92.371 53.6911 85.0134 49.5703C84.551 49.7199 84.0886 49.8423 83.6534 50.0055C73.1162 53.7294 63.9594 60.5676 57.3969 69.6137C50.8343 78.6599 47.1757 89.4868 46.9062 100.659C46.6366 111.832 49.7688 122.823 55.8875 132.175C62.0062 141.527 70.8226 148.799 81.168 153.027C91.5133 157.254 102.899 158.238 113.817 155.848C124.734 153.458 134.667 147.806 142.299 139.642C149.932 131.478 154.903 121.188 156.554 110.135C158.205 99.0814 156.458 87.7874 151.545 77.7495C151.381 77.4095 151.191 77.0967 151.028 76.7703C150.435 76.6061 149.902 76.2757 149.491 75.8183Z" fill="white"/>
<path d="M138.992 87.6938C138.785 87.619 138.559 87.619 138.353 87.6938C138.09 87.7968 137.835 87.9195 137.591 88.061C137.387 88.1834 137.278 88.2378 137.238 88.4962C137.228 88.7129 137.191 88.9276 137.129 89.1354C137.088 89.2078 137.032 89.27 136.963 89.3171C136.895 89.3643 136.817 89.3952 136.734 89.4074C136.435 89.4074 136.422 89.3258 136.204 89.2578C135.986 89.1898 135.619 89.3394 135.361 89.3938C135.186 89.4342 135.009 89.4615 134.83 89.4754C134.64 89.5688 134.476 89.7092 134.354 89.8834L133.62 90.6314L132.79 91.4474C132.546 91.6922 132.355 92.0322 132.042 92.1954C131.672 92.3282 131.278 92.3792 130.886 92.345C130.721 92.3589 130.558 92.3862 130.397 92.4266C130.166 92.5228 129.924 92.5869 129.676 92.617C129.536 92.5997 129.401 92.5518 129.281 92.4765C129.161 92.4013 129.059 92.3007 128.982 92.1818C128.712 91.8412 128.38 91.555 128.003 91.3386C127.786 91.2162 127.405 91.0122 127.187 91.1754C127.002 91.3338 126.829 91.5066 126.67 91.6922L126.262 92.1138C126.113 92.2498 125.99 92.4538 125.814 92.5354C125.324 92.7666 124.671 92.4266 124.209 92.2906C123.978 92.2906 123.583 92.0322 123.352 92.1002C123.121 92.1682 123.107 92.3314 122.998 92.4266C122.629 92.7784 122.279 93.1507 121.951 93.5418C121.887 93.659 121.796 93.7587 121.684 93.8322C121.573 93.9057 121.445 93.9508 121.312 93.9634C121.149 93.9634 121.026 93.9634 120.85 93.9634C120.661 94.0038 120.467 94.0038 120.278 93.9634L119.911 93.841C119.72 93.7938 119.524 93.7665 119.326 93.7594C118.99 93.684 118.639 93.7125 118.32 93.841C117.749 94.1674 117.45 94.793 116.96 95.201C116.47 95.609 116.294 96.017 115.967 96.1122C115.641 96.2074 115.382 95.9218 115.124 96.1122C114.838 96.3857 114.635 96.7346 114.539 97.1186C114.349 97.5266 113.927 97.6898 113.614 97.989C113.365 98.2674 113.046 98.474 112.69 98.5874C112.371 98.6233 112.064 98.7302 111.792 98.9002C111.425 99.2266 111.098 99.621 110.745 99.961L110.378 100.328C110.118 100.527 109.897 100.771 109.725 101.049C109.725 101.199 109.725 101.389 109.616 101.539L109.48 101.729C109.48 101.906 109.48 102.096 109.48 102.273C109.359 102.477 109.268 102.697 109.208 102.926C109.208 103.32 109.358 103.606 109.113 103.973C109.019 104.091 108.937 104.219 108.868 104.354C108.8 104.503 108.868 104.639 108.705 104.789C108.563 104.96 108.404 105.115 108.229 105.251C108.101 105.379 107.959 105.493 107.807 105.591C107.36 105.709 106.906 105.795 106.447 105.85C106.134 105.959 105.822 105.999 105.495 106.081C105.19 106.119 104.892 106.202 104.611 106.326L104.298 106.598C104.108 106.728 103.888 106.807 103.659 106.829C103.244 106.89 102.835 106.986 102.435 107.115C102.288 107.205 102.122 107.261 101.95 107.278C101.778 107.294 101.604 107.271 101.442 107.21C101.157 107.087 100.898 106.911 100.626 106.775C100.412 106.704 100.206 106.608 100.014 106.489C99.8481 106.352 99.6975 106.197 99.5656 106.027C99.3208 105.659 99.5656 104.531 98.8584 105.075C98.6546 105.251 98.4637 105.442 98.2872 105.646C98.0812 105.812 97.9141 106.02 97.7976 106.258C97.7096 106.649 97.6006 107.035 97.4712 107.414C97.2948 107.676 97.0792 107.91 96.832 108.107C96.7027 108.264 96.5401 108.389 96.356 108.475C96.1825 108.543 95.9922 108.558 95.8102 108.517C95.6281 108.476 95.4628 108.38 95.336 108.243C95.1448 108.108 94.9826 107.937 94.8588 107.738C94.735 107.54 94.6522 107.318 94.6152 107.087C94.5678 106.722 94.5678 106.351 94.6152 105.986C94.6152 105.564 94.6152 105.143 94.7104 104.721C94.8056 104.299 94.792 104.259 94.588 104.041C94.384 103.823 94.1664 103.579 93.7856 103.565C93.4048 103.551 93.228 103.851 92.9832 104.109C92.7384 104.367 92.0992 104.816 92.0312 105.306C92.0132 105.487 92.0669 105.667 92.1808 105.809C92.2894 105.998 92.3631 106.206 92.3984 106.421C92.5293 106.721 92.6384 107.03 92.7248 107.346C92.7248 107.795 92.8608 107.985 92.5616 108.339C92.349 108.587 92.1219 108.824 91.8816 109.046C91.6368 109.291 91.4056 109.658 91.0792 109.807C90.6934 109.981 90.2778 110.078 89.8552 110.093C89.4241 110.128 88.9946 110.007 88.6448 109.753C88.196 109.331 87.7744 108.883 87.2848 108.393C86.8803 108.027 86.4987 107.636 86.1424 107.223C86.0225 107.055 85.8907 106.896 85.748 106.747C85.6181 106.638 85.5117 106.504 85.4352 106.353C85.3427 105.921 85.3806 105.471 85.544 105.061C85.5955 104.779 85.7224 104.515 85.9112 104.299C86.088 104.082 86.3056 103.919 86.4688 103.701C86.7253 103.345 86.9228 102.95 87.0536 102.531L87.2168 102.287C87.2656 102.159 87.302 102.027 87.3256 101.892C87.448 101.607 87.8424 101.335 88.0464 101.131C88.4544 100.723 88.4272 99.7706 88.4952 99.2674C88.5061 98.9102 88.5516 98.555 88.6312 98.2066C88.8099 97.8737 88.9382 97.5163 89.012 97.1458C88.9933 97.0019 89.0109 96.8556 89.0631 96.7202C89.1154 96.5848 89.2007 96.4646 89.3112 96.3706C89.3748 96.2952 89.4636 96.2453 89.5611 96.2303C89.6586 96.2153 89.7583 96.2362 89.8416 96.289C90.0456 96.289 90.1952 96.561 90.3992 96.629C90.6032 96.697 90.6984 96.629 90.8616 96.629C91.3512 96.629 91.6912 97.2002 92.14 97.3226C92.3483 97.3361 92.5573 97.3361 92.7656 97.3226C92.9133 97.3564 93.0667 97.3564 93.2144 97.3226C93.4323 97.2118 93.6228 97.0538 93.772 96.8602L94.3568 96.289C94.5537 96.1284 94.7316 95.9459 94.8872 95.745C95.132 95.3778 94.792 94.9562 94.7104 94.5754C94.6699 94.277 94.5255 94.0025 94.3024 93.8002C94.0848 93.569 93.8536 93.3514 93.6224 93.1338C93.5433 93.0207 93.4371 92.9291 93.3136 92.8673C93.1901 92.8056 93.0532 92.7756 92.9152 92.7802C92.5579 92.7673 92.2067 92.6841 91.8816 92.5354C91.7631 92.4138 91.6821 92.2606 91.6483 92.0942C91.6146 91.9278 91.6295 91.7552 91.6912 91.597C91.8403 91.4529 91.9321 91.2596 91.9496 91.053C91.9499 90.8164 91.9084 90.5816 91.8272 90.3594C91.7048 89.9514 91.664 89.5434 91.5824 89.1354C91.5008 88.7274 91.3648 88.4962 91.5824 88.2106C91.8 87.925 92.2352 87.6394 92.1128 87.0818C92.047 86.6703 91.9186 86.2712 91.732 85.8986C91.5416 85.5586 91.1472 85.3954 91.0112 85.001C91.0112 84.8514 91.0112 84.8786 91.0112 84.7154L90.6984 84.4162C90.6053 84.2988 90.5389 84.1626 90.5037 84.017C90.4684 83.8714 90.4653 83.7199 90.4944 83.573C90.6712 82.961 91.4328 82.7842 91.5144 82.1314V81.8186C91.5443 81.7596 91.5598 81.6943 91.5598 81.6282C91.5598 81.562 91.5443 81.4968 91.5144 81.4378C91.3923 81.2389 91.2302 81.0676 91.0384 80.9346L90.6168 80.513L90.0456 79.9418C89.8416 79.7378 89.4744 79.6562 89.6376 79.3434C89.8285 79.0595 90.0625 78.8072 90.3312 78.5954C90.4717 78.4342 90.637 78.2965 90.8208 78.1874C91.1559 78.0173 91.4632 77.7972 91.732 77.5346C91.9904 77.2762 92.4528 76.9906 92.5616 76.6506C92.5811 76.4516 92.5811 76.2512 92.5616 76.0522C92.5728 75.912 92.5343 75.7724 92.4528 75.6578C92.3032 75.4538 92.1944 75.2226 91.936 75.1546C91.678 75.0905 91.4095 75.0804 91.1474 75.1248C90.8853 75.1693 90.6352 75.2674 90.4128 75.413C90.0728 75.6986 89.8008 76.093 89.4608 76.3786C89.1897 76.6335 88.8391 76.7872 88.468 76.8138C87.7744 76.8138 87.3392 76.3786 86.8496 75.9706C86.6184 75.7666 86.4416 75.6306 86.4824 75.2906C86.6037 74.7525 86.9062 74.2724 87.3392 73.9306C87.5568 73.7266 87.788 73.3594 88.06 73.2506C88.332 73.1418 88.3456 73.2506 88.468 73.2506L88.6856 73.1554C89.012 72.9922 89.2296 73.1554 89.4608 73.373C89.7614 73.7416 90.0986 74.0788 90.4672 74.3794C90.7803 74.5438 91.1312 74.6228 91.4845 74.6085C91.8379 74.5942 92.1812 74.487 92.48 74.2978C92.7292 74.1374 92.9348 73.9178 93.0784 73.6586C93.1873 73.2741 93.2151 72.8712 93.16 72.4754C93.16 72.1762 93.0376 72.149 92.9152 71.9178C92.8191 71.657 92.6547 71.4268 92.4392 71.2514C92.14 71.102 91.7962 71.0681 91.4736 71.1562C91.3219 71.1767 91.1748 71.2227 91.0384 71.2922C90.7936 71.4282 90.6984 71.6458 90.4128 71.7274C90.1272 71.809 89.7872 71.7274 89.4744 71.7274C89.1616 71.7274 89.0256 71.9722 88.808 71.7274C88.6141 71.4066 88.5064 71.0412 88.4952 70.6666C88.5219 70.4597 88.4684 70.2504 88.3456 70.0818C88.1766 69.9223 87.9524 69.8345 87.72 69.837C87.4732 69.9148 87.2459 70.0446 87.0536 70.2178C86.8479 70.3427 86.6523 70.4837 86.4688 70.6394C86.1832 70.8978 85.9384 71.1834 85.6664 71.4418C85.3944 71.7002 85.34 71.8634 85.1496 71.8906C84.9592 71.9178 84.796 71.6594 84.6464 71.5098L84.32 71.3058L83.9936 71.061C83.7864 71.0275 83.5752 71.0275 83.368 71.061C82.7614 71.1737 82.1481 71.2464 81.532 71.2786C81.124 71.2786 80.7976 71.1834 80.4848 71.4962C80.3697 71.6098 80.2836 71.7494 80.2339 71.9033C80.1842 72.0571 80.1723 72.2207 80.1992 72.3802C80.1992 72.693 80.5664 72.965 80.3352 73.2642C80.1269 73.4997 79.9043 73.7223 79.6688 73.9306C79.3016 74.257 79.0296 73.849 78.7712 73.5906C78.637 73.4741 78.5298 73.3299 78.457 73.1678C78.3842 73.0058 78.3476 72.8298 78.3496 72.6522C78.3227 72.4901 78.3227 72.3247 78.3496 72.1626C78.4329 71.9397 78.5794 71.7459 78.7712 71.605C79.0704 71.3194 78.7712 71.1698 78.5808 70.9522C78.3904 70.7346 78.1592 70.5306 77.9552 70.3266C77.8001 70.1829 77.6136 70.0774 77.4106 70.0183C77.2076 69.9593 76.9936 69.9484 76.7856 69.9866C76.3096 70.0546 75.9696 70.5442 75.6568 70.8706C75.5213 71.0517 75.3557 71.2081 75.1672 71.333C74.9168 71.4143 74.6552 71.4556 74.392 71.4554C74.0799 71.5372 73.7521 71.5372 73.44 71.4554C73.1696 71.3394 72.8926 71.2395 72.6104 71.1562C72.4357 71.1267 72.263 71.0858 72.0936 71.0338C71.9032 70.9386 71.8488 70.8162 71.6176 70.7482C71.1144 70.5986 70.8152 71.1154 70.5024 71.4282C70.0944 71.1018 70.5976 70.585 70.7064 70.2722C70.76 70.0152 70.8517 69.7677 70.9784 69.5378C71.1549 69.3044 71.3505 69.086 71.5632 68.885C71.9148 68.4878 72.3226 68.1442 72.7736 67.865C73.0198 67.7508 73.2945 67.7129 73.5624 67.7562C73.9568 67.7562 74.4872 68.069 74.9224 67.8514C75.0437 67.7531 75.1709 67.6622 75.3032 67.5794C75.4666 67.5116 75.6437 67.4836 75.82 67.4978C76.432 67.4978 77.0712 67.4978 77.6696 67.4978C78.268 67.4978 78.2 66.9402 78.6896 66.913C78.9457 66.9125 79.201 66.9399 79.4512 66.9946C79.7232 66.9946 79.9544 67.1986 80.2128 67.2394C80.3394 67.2901 80.4806 67.2901 80.6072 67.2394C81.0344 67.0352 81.4953 66.9108 81.9672 66.8722C82.1744 66.8874 82.3795 66.9239 82.5792 66.981C82.7832 66.981 82.824 67.1442 82.9872 67.2122C83.2193 67.2766 83.4634 67.2856 83.6996 67.2383C83.9359 67.1911 84.1577 67.089 84.3472 66.9402C84.4825 66.8205 84.6335 66.7198 84.796 66.641C84.9864 66.641 85.136 66.641 85.2312 66.4098C85.2746 66.3064 85.2969 66.1955 85.2969 66.0834C85.2969 65.9713 85.2746 65.8603 85.2312 65.757L85.068 65.5666C84.9784 65.4596 84.9134 65.3343 84.8776 65.1994L84.7416 65.0226H84.456C84.2339 65.0003 84.0097 65.033 83.8032 65.1178C83.6536 65.1178 83.5312 65.3354 83.3544 65.3626C83.1115 65.3698 82.8688 65.3423 82.6336 65.281C82.6336 64.7642 82.9192 64.4106 83.0552 63.921C83.0842 63.7736 83.0835 63.6219 83.0532 63.4748C83.0228 63.3276 82.9634 63.1881 82.8784 63.0642C82.5862 62.6926 82.2532 62.355 81.8856 62.0578C81.6 61.7586 81.328 61.4594 81.0696 61.1466C80.8112 60.8338 80.7024 60.589 80.308 60.5754C79.7421 60.5614 79.1801 60.6729 78.6624 60.9018L78.3496 61.0242H77.9552C77.6832 61.1058 77.5472 61.3778 77.3024 61.5138C77.0992 61.5941 76.9142 61.7143 76.7584 61.8674C76.3037 62.2667 75.7179 62.4846 75.1128 62.4794C74.8102 62.5154 74.5181 62.6123 74.254 62.7642C73.9899 62.9161 73.7592 63.12 73.576 63.3634L72.2976 64.6418C71.9168 65.0226 71.4816 65.4034 71.1144 65.8114C70.7472 66.2194 70.5976 66.6818 70.244 67.049C69.8904 67.4162 69.5368 67.7018 69.2104 68.0554C68.9318 68.3835 68.7401 68.7763 68.6528 69.1978C68.5661 69.4747 68.4007 69.7204 68.1768 69.905C68.0478 70.0158 67.9252 70.1339 67.8096 70.2586C67.491 70.7685 67.3214 71.3573 67.32 71.9586C67.32 72.149 67.2384 72.3394 67.2112 72.5298C67.184 72.7202 66.9664 73.1826 66.8304 73.4954C66.6944 73.8082 66.8304 73.8218 66.7352 73.9714C66.7849 74.3519 66.8903 74.7231 67.048 75.073C67.1363 75.5292 67.348 75.9526 67.66 76.297L67.9456 76.4874V76.8274C67.8135 77.2837 67.5367 77.6846 67.1568 77.9698C66.776 78.0922 66.1504 77.2762 65.9872 77.0042C66.2456 76.5146 66.776 76.3786 66.5992 75.6442C66.5992 75.4266 66.4632 75.2362 66.2456 75.1682C65.9007 75.1201 65.5493 75.1622 65.2256 75.2906C64.8584 75.3994 64.5728 75.6306 64.2328 75.7666C63.8928 75.9026 63.8656 75.7666 63.7024 75.9026C63.3793 76.1143 63.1205 76.4106 62.9544 76.7594C62.8321 77.0893 62.7902 77.4436 62.832 77.793C62.8575 78.0878 62.9121 78.3794 62.9952 78.6634C62.9952 78.8402 63.308 79.0442 63.3352 79.2346C63.3105 79.4373 63.2081 79.6226 63.0496 79.7514C62.8415 79.999 62.6677 80.2734 62.5328 80.5674L62.3696 80.921C62.3296 80.9657 62.2772 80.9975 62.219 81.012C62.1607 81.0266 62.0995 81.0233 62.0432 81.0026C61.9065 80.956 61.7583 80.956 61.6216 81.0026L61.1592 81.4106C60.8736 81.7234 60.5744 82.0226 60.2752 82.3218C60.0889 82.5739 59.8267 82.7597 59.5272 82.8522C59.1024 82.8999 58.6736 82.8999 58.2488 82.8522C57.8408 82.8389 57.4353 82.7842 57.0384 82.689C56.6319 82.5255 56.2755 82.2582 56.0048 81.9138L55.7056 81.6282C55.5424 81.465 55.556 81.3426 55.556 81.1114C55.6578 80.479 56.0047 79.9121 56.5216 79.5338C57.0112 79.0442 57.5008 78.5682 57.9768 78.065C58.1859 77.8383 58.4291 77.6455 58.6976 77.4938C59.0354 77.3365 59.3509 77.1353 59.636 76.8954C59.8944 76.6506 60.1392 76.365 60.3976 76.1202C60.5859 75.9113 60.7376 75.6723 60.8464 75.413C61.1048 74.8962 61.54 74.5426 61.8392 74.053C62.1384 73.5634 62.152 73.0194 62.4376 72.5706C62.5806 72.3486 62.7078 72.1168 62.8184 71.877C63.1086 71.3623 63.4806 70.8984 63.92 70.5034C64.0931 70.3621 64.2403 70.1918 64.3552 70.0002C64.4203 69.813 64.4748 69.6223 64.5184 69.429C64.5184 69.2522 64.5184 69.1298 64.5184 68.9666C64.5184 68.8034 64.94 68.409 65.1304 68.2186L65.4432 67.9194C65.6608 67.661 65.4432 67.2666 65.5248 66.9674C65.6064 66.6682 65.212 66.301 64.9264 66.0154C64.6408 65.7298 64.2328 65.1994 63.784 65.281L63.5936 65.3898C63.4884 65.4505 63.3733 65.4919 63.2536 65.5122C62.9544 65.5122 62.8456 65.7434 62.628 65.961C62.1656 66.437 61.6896 66.9266 61.2 67.321C60.6528 67.9335 60.195 68.6203 59.84 69.361C59.235 70.2359 58.517 71.027 57.7048 71.7138L55.896 73.577C55.6016 73.8495 55.3454 74.1606 55.1344 74.5018C54.8548 74.979 54.6398 75.4912 54.4952 76.025C54.3747 76.4891 54.2201 76.9436 54.0328 77.385C53.924 77.5754 53.7608 77.6706 53.652 77.861C53.5432 78.0514 53.5432 78.3506 53.4072 78.5818C53.2712 78.813 53.1216 78.881 53.0536 79.1802C52.9856 79.4794 53.0536 79.8874 52.9312 80.2274C52.9105 80.4036 52.9105 80.5816 52.9312 80.7578C52.9312 80.9482 53.04 81.125 53.0672 81.3154C53.0944 81.5913 53.0944 81.8691 53.0672 82.145C53.0295 82.5277 52.938 82.9031 52.7952 83.2602C52.7136 83.4914 52.6048 83.6954 52.5096 83.913C52.4296 84.2615 52.3204 84.6027 52.1832 84.933L51.9248 85.2322C51.8272 85.3725 51.7451 85.523 51.68 85.681C51.544 85.9802 51.2584 86.157 51.0816 86.429C50.9048 86.701 50.9728 86.769 50.8776 86.9186L50.6736 87.1498C50.4265 87.3883 50.2116 87.658 50.0344 87.9522C49.8968 88.3463 49.7922 88.7511 49.7216 89.1626C49.7216 89.4482 49.5448 89.7066 49.504 89.9922C49.4632 90.2778 49.504 90.8626 49.3816 91.3522C49.2874 91.6836 49.2461 92.0279 49.2592 92.3722V92.6714C49.2592 92.8346 49.2592 92.957 49.2592 93.1066C49.3245 93.3897 49.4884 93.6404 49.7216 93.8138C49.8848 93.9906 50.0208 94.1946 50.252 94.0858L50.5648 93.7594L51 93.3242C51.136 93.1882 51.2584 92.9842 51.4488 92.9162C51.952 92.753 52.0336 93.297 51.9248 93.6234C51.816 93.9498 51.6528 94.3986 51.5168 94.7794C51.3808 95.1602 51.0952 95.6226 50.9864 96.1394C50.9565 96.3286 50.887 96.5093 50.7824 96.6698C50.7096 96.744 50.6555 96.8346 50.6248 96.934C50.594 97.0333 50.5874 97.1386 50.6056 97.241C50.8096 98.0706 51.8296 97.8802 52.3328 97.4858C52.6867 97.208 53.0229 96.9082 53.3392 96.5882C53.8825 95.8329 54.1643 94.9207 54.1416 93.9906C54.2303 93.6191 54.4352 93.2856 54.7264 93.0386C54.9712 92.7938 55.2704 92.3178 55.6648 92.3858C55.8936 92.4684 56.1007 92.6019 56.2703 92.7762C56.4399 92.9506 56.5677 93.1612 56.644 93.3922C56.644 93.637 56.644 93.8682 56.7256 94.1266C56.7658 94.3157 56.8718 94.4844 57.0248 94.6026C57.2552 94.841 57.3907 95.1554 57.4056 95.4866C57.3707 95.8017 57.3985 96.1206 57.4872 96.425C57.7 96.7038 57.9467 96.9551 58.2216 97.173C58.4528 97.4042 58.7928 97.4722 59.0648 97.6762C59.2742 97.8606 59.474 98.0558 59.6632 98.261C59.8808 98.4922 60.1392 98.7098 60.3432 98.9546C60.5472 99.1994 60.6288 99.553 60.86 99.8114C61.06 99.9988 61.2257 100.22 61.3496 100.464C61.472 100.75 61.5536 101.063 61.6488 101.362C61.8116 101.739 61.9524 102.125 62.0704 102.518C62.1179 102.861 62.1179 103.208 62.0704 103.551C62.0704 103.878 61.9208 104.163 61.9072 104.476C61.9077 104.931 61.9349 105.385 61.9888 105.836C61.9888 106.407 62.5736 106.761 62.9544 107.196C63.1436 107.418 63.3689 107.607 63.6208 107.754L63.9336 107.876C64.1756 107.956 64.398 108.085 64.5864 108.257C64.9856 108.667 65.444 109.016 65.9464 109.291C66.2687 109.387 66.6029 109.437 66.9392 109.44C67.4968 109.44 68.0408 109.44 68.4352 109.875C68.6416 110.141 68.8109 110.434 68.9384 110.746C68.9645 110.858 68.9645 110.974 68.9384 111.086C68.9384 111.467 68.9384 111.507 69.2648 111.793C69.5912 112.079 69.9312 112.473 70.2712 112.813C70.447 113.01 70.6725 113.155 70.924 113.235C71.047 113.259 71.1632 113.31 71.264 113.384C71.5224 113.534 71.6448 113.384 71.9168 113.384C72.1101 113.395 72.3017 113.427 72.488 113.479C72.7736 113.547 73.1272 113.479 73.3992 113.561C73.6712 113.643 73.6712 113.819 73.8888 113.874C74.1592 113.946 74.4387 113.978 74.7184 113.969C74.9215 113.942 75.1273 113.942 75.3304 113.969H75.4392C75.6964 114.047 75.9708 114.047 76.228 113.969C76.4482 113.874 76.6369 113.718 76.772 113.52C76.8808 113.398 76.9216 113.289 77.112 113.33L77.5064 113.52C77.6424 113.52 77.6968 113.711 77.8736 113.738C78.0164 113.724 78.1575 113.696 78.2952 113.656C78.4178 113.656 78.5389 113.683 78.6488 113.738C78.9208 113.738 78.88 113.738 79.0976 113.575C79.3152 113.411 79.5736 113.044 79.8456 113.003C80.1176 112.963 80.308 113.289 80.5256 113.439C80.7979 113.645 81.0365 113.893 81.2328 114.173C81.5089 114.492 81.8242 114.776 82.1712 115.016C82.3888 115.166 82.5384 115.397 82.7424 115.547C82.9159 115.664 83.0977 115.768 83.2864 115.859C83.5861 115.949 83.899 115.985 84.2112 115.968C84.5648 115.968 84.5784 115.968 84.8776 115.778C85.1768 115.587 85.2448 115.778 85.4352 115.696C85.6256 115.615 85.7888 115.506 86.0336 115.465C86.2784 115.424 86.6728 115.465 86.9856 115.465C87.295 115.44 87.6006 115.381 87.8968 115.288C88.0736 115.288 88.2096 115.125 88.3864 115.071C88.6408 114.942 88.9044 114.833 89.1752 114.744C89.3878 114.724 89.6018 114.724 89.8144 114.744C90.1447 114.716 90.4721 114.662 90.7936 114.581C90.9856 114.527 91.181 114.486 91.3784 114.459H92.004C92.1944 114.363 92.3848 114.282 92.5616 114.173C92.7661 114.088 92.9619 113.983 93.1464 113.86C93.2824 113.738 93.4048 113.575 93.5408 113.439C93.806 113.205 94.0516 112.95 94.2752 112.677C94.5017 112.35 94.8053 112.084 95.1592 111.902C95.3224 111.82 95.5536 111.643 95.744 111.684C95.9344 111.725 96.1792 111.97 96.3696 112.065C96.8457 112.181 97.3348 112.236 97.8248 112.228C98.0968 112.228 98.192 112.31 98.3824 112.106L98.6136 111.861C98.872 111.603 99.2528 111.371 99.348 111.004C99.348 110.868 99.348 110.705 99.348 110.583C99.348 110.46 99.8376 110.501 100.082 110.474C100.327 110.447 100.409 110.379 100.586 110.175C100.659 110.086 100.754 110.016 100.86 109.971C100.967 109.926 101.082 109.907 101.198 109.916C101.416 109.898 101.634 109.961 101.81 110.093C101.896 110.163 102.004 110.2 102.116 110.2C102.227 110.2 102.335 110.163 102.422 110.093C102.816 109.807 103.074 109.073 103.632 109.508C103.814 109.677 104.048 109.778 104.295 109.795C104.543 109.813 104.788 109.745 104.992 109.603C105.128 109.49 105.251 109.362 105.359 109.223C105.552 109.054 105.78 108.928 106.026 108.855C106.238 108.72 106.467 108.61 106.706 108.529C106.978 108.529 107.236 108.529 107.508 108.407C107.79 108.336 108.055 108.206 108.283 108.026C108.61 107.754 108.895 107.4 109.194 107.101C109.494 106.802 109.453 106.843 109.589 106.707C109.797 106.44 110.098 106.26 110.432 106.203C111.186 107.953 111.756 109.776 112.132 111.643C112.047 111.621 111.958 111.625 111.876 111.654C111.793 111.683 111.721 111.736 111.67 111.807C111.67 111.943 111.67 112.092 111.67 112.228C111.652 112.43 111.62 112.63 111.574 112.827C111.487 113.064 111.487 113.324 111.574 113.561C111.676 113.808 111.834 114.027 112.037 114.2C112.445 114.581 112.826 114.975 113.22 115.37C113.426 115.532 113.589 115.742 113.696 115.982C113.725 116.152 113.79 116.315 113.886 116.458C113.969 116.633 114.02 116.822 114.036 117.015C114.012 117.366 114.124 117.712 114.349 117.981L114.798 118.416C115.07 118.688 115.369 119.151 115.763 119.246C116.147 119.294 116.535 119.294 116.919 119.246C117.152 119.232 117.383 119.205 117.613 119.164L118.388 119.055C118.769 119.055 119.136 119.055 119.503 119.055C119.87 119.055 120.074 118.906 120.374 118.919C120.632 118.94 120.891 118.94 121.149 118.919C121.308 118.854 121.48 118.822 121.652 118.824C121.715 118.808 121.782 118.814 121.842 118.841C121.901 118.869 121.949 118.915 121.978 118.974C122.017 119.044 122.074 119.101 122.144 119.14C122.214 119.178 122.293 119.196 122.373 119.191C122.862 119.287 123.366 119.341 123.855 119.477C124.218 119.6 124.601 119.655 124.984 119.64C125.31 119.62 125.637 119.62 125.963 119.64C126.304 119.715 126.656 119.715 126.997 119.64L127.187 119.477L127.69 119.327C128.017 119.235 128.358 119.202 128.697 119.232C128.843 119.234 128.987 119.269 129.118 119.332C129.25 119.395 129.366 119.487 129.458 119.599C129.73 119.858 129.989 120.13 130.247 120.388C130.478 120.585 130.68 120.814 130.846 121.068C131.013 121.388 131.128 121.732 131.186 122.088C131.186 122.306 131.308 122.537 131.376 122.755C131.396 122.917 131.396 123.082 131.376 123.244C131.376 123.979 131.621 124.604 131.73 125.393C131.813 125.463 131.891 125.54 131.961 125.624C132.129 125.869 132.266 126.134 132.369 126.413C132.479 126.713 132.62 127 132.79 127.27C132.979 127.426 133.109 127.642 133.158 127.882C133.253 128.385 133.715 128.739 133.851 129.242C133.901 129.521 133.979 129.794 134.082 130.058C134.267 130.64 134.533 131.194 134.871 131.703C135.007 131.867 135.211 131.989 135.334 132.166C135.456 132.343 135.415 132.479 135.538 132.615L135.823 132.873C135.986 133.077 135.959 133.363 136.054 133.594C136.15 133.825 136.299 134.07 136.408 134.315C136.517 134.559 136.558 134.777 136.639 135.008L136.762 135.199C136.895 135.466 136.996 135.75 137.061 136.042C137.251 136.518 137.741 136.831 138.094 137.198C138.244 137.347 138.326 137.524 138.462 137.674C138.606 137.846 138.766 138.005 138.938 138.15L139.155 138.395V138.599C139.343 138.885 139.577 139.138 139.849 139.347C140.097 139.638 140.37 139.906 140.665 140.149C140.761 140.208 140.872 140.239 140.984 140.239C141.097 140.239 141.208 140.208 141.304 140.149C141.599 140.075 141.883 139.96 142.147 139.809C142.395 139.59 142.607 139.333 142.773 139.047C142.846 138.891 142.932 138.74 143.031 138.599C143.201 138.483 143.33 138.316 143.398 138.123C143.494 137.817 143.558 137.503 143.589 137.184C143.623 136.849 143.552 136.511 143.385 136.219C143.296 136.001 143.218 135.778 143.154 135.552C143.132 135.314 143.053 135.086 142.922 134.886C142.791 134.753 142.692 134.593 142.633 134.416C142.574 134.239 142.557 134.051 142.582 133.866L142.188 135.729C142.011 135.539 142.188 135.09 142.188 134.859C142.188 134.627 142.188 134.369 142.106 134.124C142.025 133.879 142.256 133.703 142.27 133.471C142.245 133.258 142.138 133.062 141.97 132.927C141.821 132.778 141.739 132.737 141.698 132.533V132.22L141.549 131.867C141.386 131.581 141.386 131.513 141.549 131.227C141.712 130.942 141.794 130.928 141.739 130.738C141.685 130.547 141.467 130.534 141.739 130.289C142.011 130.044 142.079 130.058 142.12 129.799C142.229 129.215 141.576 128.888 141.848 128.303C141.992 128.089 142.171 127.9 142.378 127.746C142.501 127.61 142.746 127.46 142.827 127.297C142.861 127.232 142.878 127.159 142.878 127.086C142.878 127.013 142.861 126.941 142.827 126.875C142.767 126.727 142.767 126.561 142.827 126.413C142.895 125.828 142.801 125.235 142.555 124.699C142.909 124.4 143.371 124.795 143.738 124.387C144.106 123.979 143.834 123.843 143.67 123.53C143.507 123.217 143.154 122.918 143.14 122.673C143.14 122.115 144.337 122.442 144.092 121.707C143.997 121.449 143.643 121.245 143.453 121.055C143.169 120.829 142.941 120.54 142.786 120.211C142.922 120.13 142.786 120.089 142.786 119.953C142.786 119.423 142.637 119.477 143.317 119.219L144.214 119.055L144.799 118.919C145.058 118.77 144.976 118.539 144.922 118.307C144.867 118.076 144.84 117.859 144.786 117.641C144.731 117.423 144.677 117.423 144.65 117.301C144.622 117.179 144.65 117.097 144.65 116.961C144.671 116.817 144.663 116.671 144.626 116.53C144.588 116.39 144.522 116.259 144.432 116.145C144.286 115.944 144.214 115.699 144.228 115.451C144.228 115.152 144.133 114.853 144.146 114.54C144.217 114.215 144.356 113.909 144.554 113.643C144.758 113.275 144.554 112.935 144.269 112.609C144.122 112.433 143.994 112.241 143.888 112.038C143.888 111.902 143.888 111.779 143.752 111.643C143.664 111.518 143.624 111.366 143.639 111.213C143.654 111.061 143.723 110.919 143.834 110.814C143.982 110.624 144.059 110.388 144.051 110.147C144.078 109.972 144.078 109.793 144.051 109.617C143.951 109.337 143.869 109.051 143.806 108.76C143.806 108.502 143.915 108.243 143.915 107.985C143.924 107.717 143.946 107.449 143.983 107.183C143.983 106.938 143.983 106.679 143.983 106.435C143.991 106.229 144.045 106.028 144.142 105.847C144.238 105.666 144.375 105.508 144.541 105.387C144.897 105.019 145.113 104.538 145.153 104.027C145.153 103.701 145.33 103.456 145.425 103.143C145.486 102.958 145.486 102.758 145.425 102.572C145.389 102.356 145.339 102.142 145.275 101.933C145.152 101.703 145.016 101.481 144.867 101.267C144.758 101.119 144.63 100.986 144.486 100.872C144.228 100.573 144.282 100.355 144.16 99.9882C144.113 99.8089 144.014 99.6478 143.874 99.5258C143.698 99.4061 143.542 99.2592 143.412 99.0906C143.292 98.8114 143.232 98.5103 143.235 98.2066C143.22 98.0394 143.183 97.8749 143.126 97.717C143.126 97.5266 143.126 97.3498 143.031 97.1458C142.967 96.9302 142.85 96.7339 142.691 96.5746C142.596 96.4522 142.446 96.357 142.365 96.2346C142.257 96.0204 142.214 95.7792 142.242 95.541C142.263 95.2467 142.263 94.9513 142.242 94.657C142.242 94.453 142.093 94.4258 141.97 94.2898C141.817 94.1761 141.689 94.0313 141.596 93.8649C141.502 93.6985 141.444 93.5143 141.426 93.3242C141.386 93.0811 141.386 92.8329 141.426 92.5898C141.467 92.3102 141.467 92.0262 141.426 91.7466C141.426 91.3794 141.426 90.9986 141.331 90.6314V90.2914C141.23 90.0411 141.066 89.821 140.855 89.6522C140.447 89.2306 140.026 88.8226 139.604 88.401C139.182 87.9794 139.318 87.7754 138.992 87.6938Z" fill="#32E0C4"/>
<path d="M83.6265 50.0072L84.3473 50.4968C84.7833 50.801 85.1847 51.1522 85.5441 51.544C86.1153 52.1424 86.9041 53.3528 87.8017 53.4072C88.9441 53.4072 89.3521 52.0472 90.5217 52.156C91.1414 52.3572 91.7459 52.6026 92.3305 52.8904C92.9199 53.0938 93.5451 53.1725 94.1665 53.1216C94.6307 53.1068 95.0932 53.1854 95.5265 53.3528C96.3153 53.5296 96.4105 53.2576 97.0769 52.9584C97.4659 52.6985 97.9311 52.5773 98.3975 52.6143C98.8639 52.6513 99.3041 52.8444 99.6473 53.1624C100.409 53.788 101.674 54.4272 102.585 53.7608C103.496 53.0944 103.945 52.1832 104.747 51.6256C105.045 51.407 105.399 51.2794 105.767 51.2584C106.352 51.3264 106.27 51.7072 106.678 52.0608C107.086 52.4144 107.698 52.292 108.188 52.4824C108.678 52.6728 109.249 53.3392 109.956 53.6248C111.08 54.086 112.293 54.2905 113.506 54.2232C114.749 54.1125 116.002 54.2277 117.205 54.5632C118.225 54.876 118.959 56.1952 119.503 56.9976C119.751 57.346 119.961 57.7198 120.129 58.1128C120.346 58.7928 119.938 60.0032 120.455 60.52C121.157 60.9337 121.953 61.163 122.767 61.1864C123.787 61.268 124.889 60.8192 125.868 61.3224C126.268 61.6053 126.646 61.919 126.997 62.2608C128.019 62.7994 129.197 62.9676 130.329 62.7368C130.839 62.6328 131.362 62.6098 131.879 62.6688C132.559 62.8456 133.022 63.5936 133.484 64.0288C134.025 64.707 134.621 65.3393 135.266 65.9192C136.163 66.4904 136.898 65.7424 137.986 66.2592C138.73 66.8333 139.397 67.5007 139.971 68.2448C141.127 69.5096 142.134 70.8016 143.344 72.012C144.532 73.387 145.864 74.6316 147.315 75.7248C148.524 76.6515 149.914 77.3141 151.395 77.6696H151.654C145.683 65.5163 135.452 55.9822 122.909 50.8815C110.365 45.7809 96.3845 45.4697 83.6265 50.0072Z" fill="#32E0C4"/>
<path d="M151.205 52.7969C159.229 60.8209 139.74 86.3073 122.495 104.98L117.912 100.397C139.223 77.3993 147.982 60.6441 146.608 57.3937L151.205 52.7969Z" fill="#222831"/>
<path d="M110.473 112.227L93.3639 113.682L98.9398 119.244C76.4999 139.726 60.2887 148.103 57.4327 146.675V146.594L52.8223 151.204C60.6423 159.011 85.0271 140.732 103.55 123.827L108.99 129.267L110.473 112.227Z" fill="#222831"/>
</svg>
