<svg width="204" height="204" viewBox="0 0 204 204" fill="none" xmlns="http://www.w3.org/2000/svg">
<path d="M189.04 102.001C189.04 119.216 183.935 136.044 174.371 150.358C164.807 164.671 151.213 175.828 135.309 182.415C119.404 189.003 101.903 190.727 85.0193 187.368C68.1352 184.01 52.6262 175.72 40.4534 163.548C28.2807 151.375 19.9909 135.866 16.6324 118.982C13.274 102.097 14.9977 84.5966 21.5855 68.6922C28.1734 52.7877 39.3295 39.1939 53.6432 29.6298C67.9568 20.0657 84.7851 14.9609 102 14.9609C125.084 14.9609 147.223 24.1312 163.547 40.4544C179.87 56.7775 189.04 78.9165 189.04 102.001Z" fill="#EE7743"/>
<path d="M153.109 65.3764H49.8305C48.7484 65.3764 47.7106 65.8063 46.9455 66.5715C46.1803 67.3366 45.7505 68.3744 45.7505 69.4564V122.401C45.7505 123.483 46.1803 124.521 46.9455 125.286C47.7106 126.051 48.7484 126.481 49.8305 126.481H153.109C154.191 126.481 155.229 126.051 155.994 125.286C156.759 124.521 157.189 123.483 157.189 122.401V69.3613C157.189 68.2792 156.759 67.2414 155.994 66.4763C155.229 65.7111 154.191 65.2812 153.109 65.2812" fill="#32E0C4"/>
<path d="M144.405 70.082H58.4802C58.4802 71.8855 57.7637 73.6151 56.4885 74.8904C55.2133 76.1656 53.4836 76.882 51.6802 76.882V114.962C53.4836 114.962 55.2133 115.678 56.4885 116.954C57.7637 118.229 58.4802 119.959 58.4802 121.762H144.364C144.364 119.959 145.081 118.229 146.356 116.954C147.631 115.678 149.361 114.962 151.164 114.962V76.882C149.361 76.882 147.631 76.1656 146.356 74.8904C145.081 73.6151 144.364 71.8855 144.364 70.082" fill="white"/>
<path d="M62.6823 116.279C61.4835 113.878 59.5291 111.938 57.1199 110.757V81.0411C59.5104 79.8479 61.4483 77.91 62.6415 75.5195H140.161C141.363 77.9043 143.298 79.8399 145.683 81.0411V110.757C143.293 111.95 141.355 113.888 140.161 116.279H62.6415" fill="#32E0C4"/>
<path d="M101.47 80.0898C98.3441 80.0898 95.2887 81.0167 92.6899 82.7532C90.0911 84.4896 88.0656 86.9578 86.8695 89.8454C85.6733 92.7331 85.3604 95.9106 85.9702 98.9761C86.5799 102.042 88.085 104.857 90.2952 107.068C92.5053 109.278 95.3211 110.783 98.3867 111.393C101.452 112.002 104.63 111.689 107.517 110.493C110.405 109.297 112.873 107.272 114.61 104.673C116.346 102.074 117.273 99.0186 117.273 95.893C117.273 91.7018 115.608 87.6822 112.644 84.7185C109.681 81.7548 105.661 80.0898 101.47 80.0898Z" fill="white"/>
<path d="M131.104 89.543C129.845 89.543 128.614 89.9166 127.567 90.6166C126.52 91.3166 125.704 92.3114 125.222 93.4752C124.741 94.639 124.616 95.9195 124.863 97.1545C125.109 98.3895 125.717 99.5236 126.608 100.413C127.5 101.303 128.635 101.908 129.871 102.152C131.106 102.396 132.386 102.268 133.549 101.784C134.712 101.3 135.705 100.482 136.403 99.434C137.101 98.3855 137.472 97.1536 137.469 95.8942C137.465 94.2085 136.793 92.5931 135.6 91.4024C134.407 90.2117 132.79 89.543 131.104 89.543Z" fill="white"/>
<path d="M71.8352 89.543C70.5752 89.5403 69.3427 89.9116 68.294 90.61C67.2452 91.3083 66.4273 92.3022 65.9439 93.4658C65.4605 94.6294 65.3333 95.9102 65.5784 97.1462C65.8236 98.3821 66.43 99.5174 67.321 100.408C68.2119 101.299 69.3473 101.906 70.5832 102.151C71.8191 102.396 73.1 102.269 74.2636 101.785C75.4271 101.302 76.421 100.484 77.1194 99.4354C77.8177 98.3866 78.1891 97.1542 78.1864 95.8942C78.1864 94.2097 77.5172 92.5943 76.3261 91.4032C75.1351 90.2121 73.5196 89.543 71.8352 89.543Z" fill="white"/>
<path d="M156.985 100.395H125.705C125.384 100.395 125.076 100.522 124.849 100.749C124.622 100.976 124.494 101.284 124.494 101.605V106.827C124.494 107.148 124.622 107.456 124.849 107.683C125.076 107.91 125.384 108.038 125.705 108.038H156.985C157.306 108.038 157.614 107.91 157.841 107.683C158.068 107.456 158.195 107.148 158.195 106.827V101.605C158.195 101.284 158.068 100.976 157.841 100.749C157.614 100.522 157.306 100.395 156.985 100.395Z" fill="#FCD462"/>
<path d="M158.195 101.607V106.816C158.197 106.976 158.167 107.135 158.107 107.284C158.047 107.432 157.958 107.567 157.845 107.681C157.733 107.795 157.599 107.885 157.451 107.947C157.303 108.008 157.145 108.04 156.985 108.04H125.705C125.49 108.041 125.279 107.983 125.094 107.873C124.91 107.763 124.759 107.604 124.657 107.415C124.811 107.486 124.978 107.523 125.147 107.523H156.427C156.748 107.523 157.056 107.396 157.283 107.169C157.51 106.942 157.637 106.634 157.637 106.313V101.091C157.64 100.88 157.583 100.673 157.474 100.492C157.688 100.59 157.869 100.747 157.997 100.945C158.125 101.142 158.193 101.372 158.195 101.607Z" fill="#F7BE56"/>
<path d="M126.14 101.16C125.992 101.16 125.85 101.219 125.746 101.323C125.641 101.428 125.582 101.57 125.582 101.718V106.723C125.582 106.87 125.641 107.012 125.746 107.117C125.85 107.221 125.992 107.28 126.14 107.28C126.288 107.28 126.43 107.221 126.534 107.117C126.639 107.012 126.697 106.87 126.697 106.723V101.718C126.697 101.57 126.639 101.428 126.534 101.323C126.43 101.219 126.288 101.16 126.14 101.16Z" fill="#F7BE56"/>
<path d="M128.316 101.16C128.168 101.16 128.026 101.219 127.922 101.323C127.817 101.428 127.758 101.57 127.758 101.718V106.723C127.758 106.87 127.817 107.012 127.922 107.117C128.026 107.221 128.168 107.28 128.316 107.28C128.463 107.277 128.603 107.217 128.706 107.113C128.81 107.009 128.87 106.869 128.874 106.723V101.718C128.874 101.57 128.815 101.428 128.71 101.323C128.606 101.219 128.464 101.16 128.316 101.16Z" fill="#F7BE56"/>
<path d="M130.56 101.16C130.485 101.159 130.411 101.172 130.342 101.199C130.273 101.226 130.21 101.267 130.157 101.319C130.103 101.371 130.061 101.433 130.032 101.501C130.003 101.57 129.989 101.644 129.989 101.718V106.723C130.009 106.857 130.078 106.98 130.181 107.069C130.285 107.157 130.417 107.206 130.553 107.206C130.689 107.206 130.821 107.157 130.924 107.069C131.028 106.98 131.096 106.857 131.117 106.723V101.718C131.117 101.57 131.059 101.428 130.954 101.324C130.849 101.219 130.708 101.16 130.56 101.16Z" fill="#F7BE56"/>
<path d="M132.654 101.16C132.506 101.16 132.365 101.219 132.26 101.323C132.155 101.428 132.097 101.57 132.097 101.718V106.723C132.1 106.869 132.16 107.009 132.264 107.113C132.368 107.217 132.507 107.277 132.654 107.28C132.802 107.28 132.944 107.221 133.049 107.117C133.153 107.012 133.212 106.87 133.212 106.723V101.718C133.212 101.57 133.153 101.428 133.049 101.323C132.944 101.219 132.802 101.16 132.654 101.16Z" fill="#F7BE56"/>
<path d="M134.83 101.16C134.682 101.16 134.541 101.219 134.436 101.323C134.331 101.428 134.273 101.57 134.273 101.718V106.723C134.273 106.87 134.331 107.012 134.436 107.117C134.541 107.221 134.682 107.28 134.83 107.28C134.978 107.28 135.12 107.221 135.225 107.117C135.329 107.012 135.388 106.87 135.388 106.723V101.718C135.388 101.57 135.329 101.428 135.225 101.323C135.12 101.219 134.978 101.16 134.83 101.16Z" fill="#F7BE56"/>
<path d="M137.006 101.16C136.858 101.16 136.717 101.219 136.612 101.323C136.507 101.428 136.449 101.57 136.449 101.718V106.723C136.449 106.87 136.507 107.012 136.612 107.117C136.717 107.221 136.858 107.28 137.006 107.28C137.153 107.277 137.293 107.217 137.397 107.113C137.501 107.009 137.56 106.869 137.564 106.723V101.718C137.564 101.57 137.505 101.428 137.401 101.323C137.296 101.219 137.154 101.16 137.006 101.16Z" fill="#F7BE56"/>
<path d="M139.182 101.16C139.034 101.16 138.893 101.219 138.788 101.323C138.684 101.428 138.625 101.57 138.625 101.718V106.723C138.625 106.87 138.684 107.012 138.788 107.117C138.893 107.221 139.034 107.28 139.182 107.28C139.329 107.277 139.469 107.217 139.573 107.113C139.677 107.009 139.737 106.869 139.74 106.723V101.718C139.74 101.57 139.681 101.428 139.577 101.323C139.472 101.219 139.33 101.16 139.182 101.16Z" fill="#F7BE56"/>
<path d="M141.345 101.16C141.197 101.16 141.055 101.219 140.95 101.323C140.846 101.428 140.787 101.57 140.787 101.718V106.723C140.791 106.869 140.85 107.009 140.954 107.113C141.058 107.217 141.198 107.277 141.345 107.28C141.493 107.28 141.634 107.221 141.739 107.117C141.844 107.012 141.902 106.87 141.902 106.723V101.718C141.902 101.57 141.844 101.428 141.739 101.323C141.634 101.219 141.493 101.16 141.345 101.16Z" fill="#F7BE56"/>
<path d="M143.521 101.16C143.373 101.16 143.231 101.219 143.126 101.323C143.022 101.428 142.963 101.57 142.963 101.718V106.723C142.963 106.87 143.022 107.012 143.126 107.117C143.231 107.221 143.373 107.28 143.521 107.28C143.669 107.28 143.81 107.221 143.915 107.117C144.02 107.012 144.078 106.87 144.078 106.723V101.718C144.078 101.57 144.02 101.428 143.915 101.323C143.81 101.219 143.669 101.16 143.521 101.16Z" fill="#F7BE56"/>
<path d="M145.697 101.16C145.549 101.16 145.407 101.219 145.302 101.323C145.198 101.428 145.139 101.57 145.139 101.718V106.723C145.139 106.796 145.154 106.868 145.182 106.936C145.21 107.004 145.251 107.065 145.302 107.117C145.354 107.169 145.416 107.21 145.483 107.238C145.551 107.266 145.624 107.28 145.697 107.28C145.77 107.28 145.843 107.266 145.91 107.238C145.978 107.21 146.039 107.169 146.091 107.117C146.143 107.065 146.184 107.004 146.212 106.936C146.24 106.868 146.254 106.796 146.254 106.723V101.718C146.254 101.57 146.196 101.428 146.091 101.323C145.986 101.219 145.845 101.16 145.697 101.16Z" fill="#F7BE56"/>
<path d="M147.873 101.16C147.725 101.16 147.583 101.219 147.478 101.323C147.374 101.428 147.315 101.57 147.315 101.718V106.723C147.315 106.87 147.374 107.012 147.478 107.117C147.583 107.221 147.725 107.28 147.873 107.28C148.019 107.277 148.159 107.217 148.263 107.113C148.367 107.009 148.427 106.869 148.43 106.723V101.718C148.43 101.57 148.371 101.428 148.267 101.323C148.162 101.219 148.02 101.16 147.873 101.16Z" fill="#F7BE56"/>
<path d="M150.049 101.16C149.974 101.159 149.9 101.172 149.831 101.199C149.762 101.226 149.699 101.267 149.645 101.319C149.592 101.371 149.55 101.433 149.521 101.501C149.492 101.57 149.477 101.644 149.477 101.718V106.723C149.498 106.857 149.567 106.98 149.67 107.069C149.774 107.157 149.905 107.206 150.042 107.206C150.178 107.206 150.31 107.157 150.413 107.069C150.517 106.98 150.585 106.857 150.606 106.723V101.718C150.606 101.57 150.547 101.428 150.443 101.324C150.338 101.219 150.196 101.16 150.049 101.16Z" fill="#F7BE56"/>
<path d="M152.211 101.16C152.063 101.16 151.921 101.219 151.817 101.323C151.712 101.428 151.654 101.57 151.654 101.718V106.723C151.657 106.869 151.717 107.009 151.821 107.113C151.925 107.217 152.064 107.277 152.211 107.28C152.359 107.28 152.501 107.221 152.605 107.117C152.71 107.012 152.769 106.87 152.769 106.723V101.718C152.769 101.57 152.71 101.428 152.605 101.323C152.501 101.219 152.359 101.16 152.211 101.16Z" fill="#F7BE56"/>
<path d="M154.387 101.16C154.239 101.16 154.097 101.219 153.993 101.323C153.888 101.428 153.829 101.57 153.829 101.718V106.723C153.829 106.87 153.888 107.012 153.993 107.117C154.097 107.221 154.239 107.28 154.387 107.28C154.535 107.28 154.677 107.221 154.781 107.117C154.886 107.012 154.945 106.87 154.945 106.723V101.718C154.945 101.57 154.886 101.428 154.781 101.323C154.677 101.219 154.535 101.16 154.387 101.16Z" fill="#F7BE56"/>
<path d="M156.563 101.16C156.415 101.16 156.274 101.219 156.169 101.323C156.064 101.428 156.006 101.57 156.006 101.718V106.723C156.006 106.87 156.064 107.012 156.169 107.117C156.274 107.221 156.415 107.28 156.563 107.28C156.71 107.277 156.85 107.217 156.954 107.113C157.058 107.009 157.117 106.869 157.121 106.723V101.718C157.121 101.57 157.062 101.428 156.958 101.323C156.853 101.219 156.711 101.16 156.563 101.16Z" fill="#F7BE56"/>
<path d="M156.985 108.039H125.705C125.384 108.039 125.076 108.167 124.849 108.394C124.622 108.621 124.494 108.928 124.494 109.249V114.472C124.494 114.793 124.622 115.101 124.849 115.328C125.076 115.555 125.384 115.682 125.705 115.682H156.985C157.306 115.682 157.614 115.555 157.841 115.328C158.068 115.101 158.195 114.793 158.195 114.472V109.249C158.195 108.928 158.068 108.621 157.841 108.394C157.614 108.167 157.306 108.039 156.985 108.039Z" fill="#FCD462"/>
<path d="M158.195 109.25V114.473C158.195 114.794 158.068 115.102 157.841 115.329C157.614 115.556 157.306 115.683 156.985 115.683H125.705C125.491 115.684 125.282 115.627 125.098 115.52C124.914 115.412 124.762 115.257 124.657 115.071C124.811 115.142 124.978 115.179 125.147 115.18H156.427C156.587 115.18 156.746 115.148 156.893 115.087C157.041 115.025 157.175 114.934 157.288 114.821C157.4 114.707 157.489 114.572 157.549 114.423C157.609 114.275 157.639 114.116 157.637 113.956V108.802C157.64 108.591 157.583 108.383 157.474 108.203C157.689 108.296 157.872 108.45 158 108.646C158.128 108.842 158.196 109.071 158.195 109.305" fill="#F7BE56"/>
<path d="M126.14 108.801C125.992 108.801 125.85 108.86 125.746 108.964C125.641 109.069 125.582 109.211 125.582 109.358V114.363C125.582 114.511 125.641 114.653 125.746 114.757C125.85 114.862 125.992 114.921 126.14 114.921C126.288 114.921 126.43 114.862 126.534 114.757C126.639 114.653 126.697 114.511 126.697 114.363V109.358C126.697 109.211 126.639 109.069 126.534 108.964C126.43 108.86 126.288 108.801 126.14 108.801Z" fill="#F7BE56"/>
<path d="M128.316 108.801C128.168 108.801 128.026 108.86 127.922 108.964C127.817 109.069 127.759 109.211 127.759 109.358V114.363C127.759 114.511 127.817 114.653 127.922 114.757C128.026 114.862 128.168 114.921 128.316 114.921C128.464 114.921 128.606 114.862 128.71 114.757C128.815 114.653 128.874 114.511 128.874 114.363V109.358C128.874 109.211 128.815 109.069 128.71 108.964C128.606 108.86 128.464 108.801 128.316 108.801Z" fill="#F7BE56"/>
<path d="M130.56 108.801C130.486 108.799 130.412 108.812 130.342 108.839C130.273 108.867 130.21 108.907 130.157 108.959C130.104 109.011 130.061 109.073 130.032 109.142C130.004 109.211 129.989 109.284 129.989 109.359V114.363C130.01 114.498 130.078 114.621 130.182 114.709C130.285 114.798 130.417 114.847 130.553 114.847C130.689 114.847 130.821 114.798 130.925 114.709C131.028 114.621 131.097 114.498 131.118 114.363V109.359C131.118 109.211 131.059 109.069 130.954 108.964C130.85 108.86 130.708 108.801 130.56 108.801Z" fill="#F7BE56"/>
<path d="M132.654 108.801C132.506 108.801 132.365 108.86 132.26 108.964C132.155 109.069 132.097 109.211 132.097 109.358V114.363C132.097 114.511 132.155 114.653 132.26 114.757C132.365 114.862 132.506 114.921 132.654 114.921C132.802 114.921 132.944 114.862 133.049 114.757C133.153 114.653 133.212 114.511 133.212 114.363V109.358C133.212 109.211 133.153 109.069 133.049 108.964C132.944 108.86 132.802 108.801 132.654 108.801Z" fill="#F7BE56"/>
<path d="M134.83 108.801C134.682 108.801 134.541 108.86 134.436 108.964C134.331 109.069 134.273 109.211 134.273 109.358V114.363C134.273 114.511 134.331 114.653 134.436 114.757C134.541 114.862 134.682 114.921 134.83 114.921C134.978 114.921 135.12 114.862 135.225 114.757C135.329 114.653 135.388 114.511 135.388 114.363V109.358C135.388 109.211 135.329 109.069 135.225 108.964C135.12 108.86 134.978 108.801 134.83 108.801Z" fill="#F7BE56"/>
<path d="M137.006 108.801C136.858 108.801 136.717 108.86 136.612 108.964C136.507 109.069 136.449 109.211 136.449 109.358V114.363C136.449 114.511 136.507 114.653 136.612 114.757C136.717 114.862 136.858 114.921 137.006 114.921C137.154 114.921 137.296 114.862 137.401 114.757C137.505 114.653 137.564 114.511 137.564 114.363V109.358C137.564 109.211 137.505 109.069 137.401 108.964C137.296 108.86 137.154 108.801 137.006 108.801Z" fill="#F7BE56"/>
<path d="M139.182 108.801C139.034 108.801 138.893 108.86 138.788 108.964C138.684 109.069 138.625 109.211 138.625 109.358V114.363C138.625 114.511 138.684 114.653 138.788 114.757C138.893 114.862 139.034 114.921 139.182 114.921C139.33 114.921 139.472 114.862 139.577 114.757C139.681 114.653 139.74 114.511 139.74 114.363V109.358C139.74 109.211 139.681 109.069 139.577 108.964C139.472 108.86 139.33 108.801 139.182 108.801Z" fill="#F7BE56"/>
<path d="M141.345 108.801C141.197 108.801 141.055 108.86 140.951 108.964C140.846 109.069 140.787 109.211 140.787 109.358V114.363C140.787 114.511 140.846 114.653 140.951 114.757C141.055 114.862 141.197 114.921 141.345 114.921C141.493 114.921 141.635 114.862 141.739 114.757C141.844 114.653 141.903 114.511 141.903 114.363V109.358C141.903 109.211 141.844 109.069 141.739 108.964C141.635 108.86 141.493 108.801 141.345 108.801Z" fill="#F7BE56"/>
<path d="M143.521 108.801C143.373 108.801 143.231 108.86 143.126 108.964C143.022 109.069 142.963 109.211 142.963 109.358V114.363C142.963 114.511 143.022 114.653 143.126 114.757C143.231 114.862 143.373 114.921 143.521 114.921C143.669 114.921 143.81 114.862 143.915 114.757C144.02 114.653 144.078 114.511 144.078 114.363V109.358C144.078 109.211 144.02 109.069 143.915 108.964C143.81 108.86 143.669 108.801 143.521 108.801Z" fill="#F7BE56"/>
<path d="M145.697 108.801C145.549 108.801 145.407 108.86 145.302 108.964C145.198 109.069 145.139 109.211 145.139 109.358V114.363C145.139 114.436 145.154 114.509 145.182 114.577C145.21 114.644 145.251 114.706 145.302 114.757C145.354 114.809 145.416 114.85 145.483 114.878C145.551 114.906 145.624 114.921 145.697 114.921C145.77 114.921 145.843 114.906 145.91 114.878C145.978 114.85 146.039 114.809 146.091 114.757C146.143 114.706 146.184 114.644 146.212 114.577C146.24 114.509 146.254 114.436 146.254 114.363V109.358C146.254 109.211 146.196 109.069 146.091 108.964C145.986 108.86 145.845 108.801 145.697 108.801Z" fill="#F7BE56"/>
<path d="M147.873 108.801C147.725 108.801 147.583 108.86 147.479 108.964C147.374 109.069 147.315 109.211 147.315 109.358V114.363C147.315 114.511 147.374 114.653 147.479 114.757C147.583 114.862 147.725 114.921 147.873 114.921C148.021 114.921 148.163 114.862 148.267 114.757C148.372 114.653 148.43 114.511 148.43 114.363V109.358C148.43 109.211 148.372 109.069 148.267 108.964C148.163 108.86 148.021 108.801 147.873 108.801Z" fill="#F7BE56"/>
<path d="M150.049 108.801C149.974 108.799 149.9 108.812 149.831 108.839C149.762 108.867 149.699 108.907 149.646 108.959C149.592 109.011 149.55 109.073 149.521 109.142C149.492 109.211 149.478 109.284 149.478 109.359V114.363C149.499 114.498 149.567 114.621 149.67 114.709C149.774 114.798 149.906 114.847 150.042 114.847C150.178 114.847 150.31 114.798 150.413 114.709C150.517 114.621 150.585 114.498 150.606 114.363V109.359C150.606 109.211 150.548 109.069 150.443 108.964C150.338 108.86 150.197 108.801 150.049 108.801Z" fill="#F7BE56"/>
<path d="M152.211 108.801C152.063 108.801 151.921 108.86 151.817 108.964C151.712 109.069 151.654 109.211 151.654 109.358V114.363C151.654 114.511 151.712 114.653 151.817 114.757C151.921 114.862 152.063 114.921 152.211 114.921C152.359 114.921 152.501 114.862 152.605 114.757C152.71 114.653 152.769 114.511 152.769 114.363V109.358C152.769 109.211 152.71 109.069 152.605 108.964C152.501 108.86 152.359 108.801 152.211 108.801Z" fill="#F7BE56"/>
<path d="M154.387 108.801C154.239 108.801 154.097 108.86 153.993 108.964C153.888 109.069 153.83 109.211 153.83 109.358V114.363C153.83 114.511 153.888 114.653 153.993 114.757C154.097 114.862 154.239 114.921 154.387 114.921C154.535 114.921 154.677 114.862 154.781 114.757C154.886 114.653 154.945 114.511 154.945 114.363V109.358C154.945 109.211 154.886 109.069 154.781 108.964C154.677 108.86 154.535 108.801 154.387 108.801Z" fill="#F7BE56"/>
<path d="M156.563 108.801C156.415 108.801 156.274 108.86 156.169 108.964C156.064 109.069 156.006 109.211 156.006 109.358V114.363C156.006 114.511 156.064 114.653 156.169 114.757C156.274 114.862 156.415 114.921 156.563 114.921C156.711 114.921 156.853 114.862 156.958 114.757C157.062 114.653 157.121 114.511 157.121 114.363V109.358C157.121 109.211 157.062 109.069 156.958 108.964C156.853 108.86 156.711 108.801 156.563 108.801Z" fill="#F7BE56"/>
<path d="M156.985 115.684H125.705C125.384 115.684 125.076 115.811 124.849 116.038C124.622 116.265 124.494 116.573 124.494 116.894V122.116C124.493 122.276 124.523 122.435 124.583 122.584C124.643 122.732 124.732 122.867 124.844 122.981C124.957 123.095 125.091 123.185 125.239 123.247C125.386 123.309 125.545 123.34 125.705 123.34H156.985C157.145 123.34 157.303 123.309 157.451 123.247C157.599 123.185 157.733 123.095 157.846 122.981C157.958 122.867 158.047 122.732 158.107 122.584C158.167 122.435 158.197 122.276 158.195 122.116V116.962C158.195 116.641 158.068 116.333 157.841 116.106C157.614 115.879 157.306 115.752 156.985 115.752" fill="#FCD462"/>
<path d="M158.195 116.959V122.181C158.197 122.341 158.167 122.5 158.107 122.648C158.047 122.797 157.958 122.932 157.845 123.046C157.733 123.16 157.599 123.25 157.451 123.312C157.303 123.373 157.145 123.405 156.985 123.405H125.705C125.49 123.403 125.28 123.344 125.096 123.234C124.913 123.124 124.761 122.967 124.657 122.779C124.811 122.851 124.978 122.888 125.147 122.888H156.427C156.748 122.888 157.056 122.761 157.283 122.534C157.51 122.307 157.637 121.999 157.637 121.678V116.387C157.64 116.177 157.583 115.969 157.474 115.789C157.688 115.884 157.87 116.038 157.998 116.233C158.125 116.429 158.194 116.657 158.195 116.891" fill="#F7BE56"/>
<path d="M126.14 116.443C125.992 116.443 125.85 116.502 125.746 116.606C125.641 116.711 125.582 116.853 125.582 117.001V122.006C125.582 122.153 125.641 122.295 125.746 122.4C125.85 122.504 125.992 122.563 126.14 122.563C126.288 122.563 126.43 122.504 126.534 122.4C126.639 122.295 126.697 122.153 126.697 122.006V116.96C126.697 116.812 126.639 116.67 126.534 116.566C126.43 116.461 126.288 116.402 126.14 116.402" fill="#F7BE56"/>
<path d="M128.316 116.443C128.168 116.443 128.026 116.502 127.922 116.606C127.817 116.711 127.758 116.853 127.758 117.001V122.006C127.757 122.08 127.77 122.154 127.797 122.223C127.824 122.292 127.865 122.355 127.917 122.409C127.969 122.462 128.031 122.504 128.099 122.533C128.168 122.562 128.242 122.577 128.316 122.577C128.465 122.573 128.607 122.511 128.711 122.405C128.815 122.298 128.874 122.155 128.874 122.006V116.96C128.87 116.813 128.81 116.673 128.707 116.569C128.603 116.466 128.463 116.406 128.316 116.402" fill="#F7BE56"/>
<path d="M130.56 116.443C130.411 116.443 130.268 116.501 130.161 116.606C130.054 116.71 129.992 116.852 129.989 117.001V122.006C129.976 122.087 129.981 122.17 130.004 122.25C130.026 122.329 130.066 122.402 130.119 122.465C130.173 122.528 130.239 122.578 130.314 122.612C130.389 122.647 130.471 122.665 130.553 122.665C130.636 122.665 130.717 122.647 130.792 122.612C130.867 122.578 130.933 122.528 130.987 122.465C131.041 122.402 131.08 122.329 131.103 122.25C131.125 122.17 131.13 122.087 131.118 122.006V116.96C131.114 116.813 131.054 116.673 130.95 116.569C130.847 116.466 130.707 116.406 130.56 116.402" fill="#F7BE56"/>
<path d="M132.654 116.443C132.507 116.447 132.368 116.506 132.264 116.61C132.16 116.714 132.1 116.854 132.097 117.001V122.006C132.097 122.155 132.155 122.298 132.259 122.405C132.363 122.511 132.505 122.573 132.654 122.577C132.729 122.577 132.802 122.562 132.871 122.533C132.939 122.504 133.001 122.462 133.053 122.409C133.105 122.355 133.146 122.292 133.173 122.223C133.201 122.154 133.214 122.08 133.212 122.006V116.96C133.212 116.812 133.153 116.67 133.049 116.566C132.944 116.461 132.802 116.402 132.654 116.402" fill="#F7BE56"/>
<path d="M134.83 116.443C134.682 116.443 134.541 116.502 134.436 116.606C134.331 116.711 134.273 116.853 134.273 117.001V122.006C134.273 122.079 134.287 122.151 134.315 122.219C134.343 122.287 134.384 122.348 134.436 122.4C134.488 122.452 134.549 122.493 134.617 122.521C134.685 122.549 134.757 122.563 134.83 122.563C134.904 122.563 134.976 122.549 135.044 122.521C135.111 122.493 135.173 122.452 135.225 122.4C135.276 122.348 135.317 122.287 135.345 122.219C135.373 122.151 135.388 122.079 135.388 122.006V116.96C135.388 116.812 135.329 116.67 135.225 116.566C135.12 116.461 134.978 116.402 134.83 116.402" fill="#F7BE56"/>
<path d="M137.006 116.443C136.859 116.443 136.717 116.502 136.612 116.606C136.508 116.711 136.449 116.853 136.449 117.001V122.006C136.447 122.08 136.46 122.154 136.487 122.223C136.515 122.292 136.555 122.355 136.607 122.409C136.659 122.462 136.721 122.504 136.79 122.533C136.858 122.562 136.932 122.577 137.006 122.577C137.156 122.573 137.297 122.511 137.402 122.405C137.506 122.298 137.564 122.155 137.564 122.006V116.96C137.561 116.813 137.501 116.673 137.397 116.569C137.293 116.466 137.153 116.406 137.006 116.402" fill="#F7BE56"/>
<path d="M139.182 116.443C139.034 116.443 138.893 116.502 138.788 116.606C138.683 116.711 138.625 116.853 138.625 117.001V122.006C138.623 122.08 138.636 122.154 138.663 122.223C138.69 122.292 138.731 122.355 138.783 122.409C138.835 122.462 138.897 122.504 138.966 122.533C139.034 122.562 139.108 122.577 139.182 122.577C139.331 122.573 139.473 122.511 139.577 122.405C139.682 122.298 139.74 122.155 139.74 122.006V116.96C139.736 116.813 139.677 116.673 139.573 116.569C139.469 116.466 139.329 116.406 139.182 116.402" fill="#F7BE56"/>
<path d="M141.345 116.441C141.198 116.445 141.058 116.505 140.954 116.609C140.851 116.712 140.791 116.852 140.787 116.999V122.004C140.787 122.153 140.846 122.296 140.95 122.403C141.054 122.51 141.196 122.571 141.345 122.575C141.419 122.575 141.493 122.56 141.562 122.531C141.63 122.502 141.692 122.46 141.744 122.407C141.796 122.354 141.837 122.291 141.864 122.221C141.891 122.152 141.904 122.078 141.903 122.004V116.958C141.892 116.818 141.829 116.686 141.725 116.59C141.622 116.494 141.486 116.441 141.345 116.441Z" fill="#F7BE56"/>
<path d="M143.521 116.441C143.373 116.441 143.231 116.5 143.126 116.605C143.022 116.709 142.963 116.851 142.963 116.999V122.004C142.963 122.152 143.022 122.294 143.126 122.398C143.231 122.503 143.373 122.561 143.521 122.561C143.669 122.561 143.81 122.503 143.915 122.398C144.02 122.294 144.078 122.152 144.078 122.004V116.958C144.068 116.818 144.005 116.686 143.901 116.59C143.798 116.494 143.662 116.441 143.521 116.441Z" fill="#F7BE56"/>
<path d="M145.697 116.441C145.549 116.441 145.407 116.5 145.302 116.605C145.198 116.709 145.139 116.851 145.139 116.999V122.004C145.139 122.077 145.154 122.15 145.182 122.217C145.21 122.285 145.251 122.346 145.302 122.398C145.354 122.45 145.416 122.491 145.483 122.519C145.551 122.547 145.624 122.561 145.697 122.561C145.77 122.561 145.843 122.547 145.91 122.519C145.978 122.491 146.039 122.45 146.091 122.398C146.143 122.346 146.184 122.285 146.212 122.217C146.24 122.15 146.254 122.077 146.254 122.004V116.958C146.244 116.818 146.181 116.686 146.077 116.59C145.974 116.494 145.838 116.441 145.697 116.441Z" fill="#F7BE56"/>
<path d="M147.873 116.441C147.725 116.441 147.583 116.5 147.478 116.605C147.374 116.709 147.315 116.851 147.315 116.999V122.004C147.313 122.078 147.326 122.152 147.354 122.221C147.381 122.291 147.422 122.354 147.474 122.407C147.525 122.46 147.588 122.502 147.656 122.531C147.725 122.56 147.798 122.575 147.873 122.575C148.022 122.571 148.164 122.51 148.268 122.403C148.372 122.296 148.43 122.153 148.43 122.004V116.958C148.417 116.819 148.353 116.689 148.25 116.594C148.147 116.498 148.013 116.444 147.873 116.441Z" fill="#F7BE56"/>
<path d="M150.049 116.441C149.9 116.441 149.757 116.5 149.65 116.604C149.543 116.708 149.481 116.85 149.478 116.999V122.004C149.465 122.085 149.47 122.169 149.493 122.248C149.515 122.327 149.555 122.401 149.608 122.463C149.662 122.526 149.728 122.576 149.803 122.611C149.878 122.645 149.96 122.663 150.042 122.663C150.125 122.663 150.206 122.645 150.281 122.611C150.356 122.576 150.422 122.526 150.476 122.463C150.53 122.401 150.569 122.327 150.592 122.248C150.614 122.169 150.619 122.085 150.607 122.004V116.958C150.593 116.819 150.529 116.689 150.426 116.594C150.323 116.498 150.189 116.444 150.049 116.441Z" fill="#F7BE56"/>
<path d="M152.211 116.441C152.064 116.445 151.925 116.505 151.821 116.609C151.717 116.712 151.657 116.852 151.654 116.999V122.004C151.654 122.153 151.712 122.296 151.816 122.403C151.92 122.51 152.062 122.571 152.211 122.575C152.286 122.575 152.359 122.56 152.428 122.531C152.496 122.502 152.558 122.46 152.61 122.407C152.662 122.354 152.703 122.291 152.73 122.221C152.757 122.152 152.771 122.078 152.769 122.004V116.958C152.758 116.818 152.695 116.686 152.592 116.59C152.488 116.494 152.352 116.441 152.211 116.441Z" fill="#F7BE56"/>
<path d="M154.387 116.441C154.239 116.441 154.097 116.5 153.993 116.605C153.888 116.709 153.83 116.851 153.83 116.999V122.004C153.83 122.152 153.888 122.294 153.993 122.398C154.097 122.503 154.239 122.561 154.387 122.561C154.535 122.561 154.677 122.503 154.781 122.398C154.886 122.294 154.945 122.152 154.945 122.004V116.958C154.934 116.818 154.871 116.686 154.768 116.59C154.664 116.494 154.528 116.441 154.387 116.441Z" fill="#F7BE56"/>
<path d="M156.563 116.441C156.415 116.441 156.273 116.5 156.169 116.605C156.064 116.709 156.006 116.851 156.006 116.999V122.004C156.004 122.078 156.017 122.152 156.044 122.221C156.071 122.291 156.112 122.354 156.164 122.407C156.216 122.46 156.278 122.502 156.347 122.531C156.415 122.56 156.489 122.575 156.563 122.575C156.712 122.571 156.854 122.51 156.958 122.403C157.062 122.296 157.121 122.153 157.121 122.004V116.958C157.107 116.819 157.043 116.689 156.94 116.594C156.838 116.498 156.703 116.444 156.563 116.441Z" fill="#F7BE56"/>
<path d="M156.985 123.34H125.705C125.384 123.34 125.076 123.467 124.849 123.694C124.622 123.921 124.494 124.229 124.494 124.55V129.773C124.494 130.094 124.622 130.402 124.849 130.629C125.076 130.856 125.384 130.983 125.705 130.983H156.985C157.306 130.983 157.614 130.856 157.841 130.629C158.068 130.402 158.195 130.094 158.195 129.773V124.55C158.195 124.229 158.068 123.921 157.841 123.694C157.614 123.467 157.306 123.34 156.985 123.34Z" fill="#FCD462"/>
<path d="M158.195 124.549V129.771C158.195 130.092 158.068 130.4 157.841 130.627C157.614 130.854 157.306 130.982 156.985 130.982H125.705C125.49 130.982 125.279 130.924 125.094 130.814C124.91 130.704 124.759 130.546 124.657 130.356C124.809 130.434 124.977 130.471 125.147 130.465H156.427C156.748 130.465 157.056 130.337 157.283 130.11C157.51 129.883 157.637 129.575 157.637 129.254V124.032C157.64 123.821 157.583 123.614 157.474 123.434C157.688 123.532 157.869 123.689 157.997 123.886C158.125 124.084 158.193 124.314 158.195 124.549Z" fill="#F7BE56"/>
<path d="M126.14 124.102C125.992 124.102 125.85 124.16 125.746 124.265C125.641 124.369 125.582 124.511 125.582 124.659V129.664C125.582 129.812 125.641 129.954 125.746 130.058C125.85 130.163 125.992 130.222 126.14 130.222C126.288 130.222 126.43 130.163 126.534 130.058C126.639 129.954 126.697 129.812 126.697 129.664V124.659C126.697 124.511 126.639 124.369 126.534 124.265C126.43 124.16 126.288 124.102 126.14 124.102Z" fill="#F7BE56"/>
<path d="M128.316 124.102C128.168 124.102 128.026 124.16 127.922 124.265C127.817 124.369 127.759 124.511 127.759 124.659V129.664C127.759 129.812 127.817 129.954 127.922 130.058C128.026 130.163 128.168 130.222 128.316 130.222C128.463 130.218 128.603 130.158 128.707 130.054C128.81 129.951 128.87 129.811 128.874 129.664V124.659C128.874 124.511 128.815 124.369 128.71 124.265C128.606 124.16 128.464 124.102 128.316 124.102Z" fill="#F7BE56"/>
<path d="M130.56 124.098C130.486 124.096 130.412 124.109 130.342 124.136C130.273 124.164 130.21 124.204 130.157 124.256C130.104 124.308 130.061 124.37 130.032 124.439C130.004 124.507 129.989 124.581 129.989 124.655V129.66C130.01 129.795 130.078 129.918 130.182 130.006C130.285 130.095 130.417 130.144 130.553 130.144C130.689 130.144 130.821 130.095 130.925 130.006C131.028 129.918 131.097 129.795 131.118 129.66V124.655C131.118 124.508 131.059 124.366 130.954 124.261C130.85 124.157 130.708 124.098 130.56 124.098Z" fill="#F7BE56"/>
<path d="M132.654 124.102C132.506 124.102 132.365 124.16 132.26 124.265C132.155 124.369 132.097 124.511 132.097 124.659V129.664C132.1 129.811 132.16 129.951 132.264 130.054C132.368 130.158 132.507 130.218 132.654 130.222C132.802 130.222 132.944 130.163 133.049 130.058C133.153 129.954 133.212 129.812 133.212 129.664V124.659C133.212 124.511 133.153 124.369 133.049 124.265C132.944 124.16 132.802 124.102 132.654 124.102Z" fill="#F7BE56"/>
<path d="M134.83 124.102C134.682 124.102 134.541 124.16 134.436 124.265C134.331 124.369 134.273 124.511 134.273 124.659V129.664C134.273 129.812 134.331 129.954 134.436 130.058C134.541 130.163 134.682 130.222 134.83 130.222C134.978 130.222 135.12 130.163 135.225 130.058C135.329 129.954 135.388 129.812 135.388 129.664V124.659C135.388 124.511 135.329 124.369 135.225 124.265C135.12 124.16 134.978 124.102 134.83 124.102Z" fill="#F7BE56"/>
<path d="M137.006 124.102C136.858 124.102 136.717 124.16 136.612 124.265C136.507 124.369 136.449 124.511 136.449 124.659V129.664C136.449 129.812 136.507 129.954 136.612 130.058C136.717 130.163 136.858 130.222 137.006 130.222C137.153 130.218 137.293 130.158 137.397 130.054C137.501 129.951 137.56 129.811 137.564 129.664V124.659C137.564 124.511 137.505 124.369 137.401 124.265C137.296 124.16 137.154 124.102 137.006 124.102Z" fill="#F7BE56"/>
<path d="M139.182 124.102C139.034 124.102 138.893 124.16 138.788 124.265C138.684 124.369 138.625 124.511 138.625 124.659V129.664C138.625 129.812 138.684 129.954 138.788 130.058C138.893 130.163 139.034 130.222 139.182 130.222C139.329 130.218 139.469 130.158 139.573 130.054C139.677 129.951 139.737 129.811 139.74 129.664V124.659C139.74 124.511 139.681 124.369 139.577 124.265C139.472 124.16 139.33 124.102 139.182 124.102Z" fill="#F7BE56"/>
<path d="M141.345 124.102C141.197 124.102 141.055 124.16 140.951 124.265C140.846 124.369 140.787 124.511 140.787 124.659V129.664C140.791 129.811 140.851 129.951 140.955 130.054C141.058 130.158 141.198 130.218 141.345 130.222C141.493 130.222 141.635 130.163 141.739 130.058C141.844 129.954 141.903 129.812 141.903 129.664V124.659C141.903 124.511 141.844 124.369 141.739 124.265C141.635 124.16 141.493 124.102 141.345 124.102Z" fill="#F7BE56"/>
<path d="M143.521 124.102C143.373 124.102 143.231 124.16 143.126 124.265C143.022 124.369 142.963 124.511 142.963 124.659V129.664C142.963 129.812 143.022 129.954 143.126 130.058C143.231 130.163 143.373 130.222 143.521 130.222C143.669 130.222 143.81 130.163 143.915 130.058C144.02 129.954 144.078 129.812 144.078 129.664V124.659C144.078 124.511 144.02 124.369 143.915 124.265C143.81 124.16 143.669 124.102 143.521 124.102Z" fill="#F7BE56"/>
<path d="M145.697 124.102C145.549 124.102 145.407 124.16 145.302 124.265C145.198 124.369 145.139 124.511 145.139 124.659V129.664C145.139 129.737 145.154 129.81 145.182 129.877C145.21 129.945 145.251 130.006 145.302 130.058C145.354 130.11 145.416 130.151 145.483 130.179C145.551 130.207 145.624 130.222 145.697 130.222C145.77 130.222 145.843 130.207 145.91 130.179C145.978 130.151 146.039 130.11 146.091 130.058C146.143 130.006 146.184 129.945 146.212 129.877C146.24 129.81 146.254 129.737 146.254 129.664V124.659C146.254 124.511 146.196 124.369 146.091 124.265C145.986 124.16 145.845 124.102 145.697 124.102Z" fill="#F7BE56"/>
<path d="M147.873 124.102C147.725 124.102 147.583 124.16 147.479 124.265C147.374 124.369 147.315 124.511 147.315 124.659V129.664C147.315 129.812 147.374 129.954 147.479 130.058C147.583 130.163 147.725 130.222 147.873 130.222C148.02 130.218 148.159 130.158 148.263 130.054C148.367 129.951 148.427 129.811 148.43 129.664V124.659C148.43 124.511 148.372 124.369 148.267 124.265C148.163 124.16 148.021 124.102 147.873 124.102Z" fill="#F7BE56"/>
<path d="M150.049 124.098C149.974 124.096 149.9 124.109 149.831 124.136C149.762 124.164 149.699 124.204 149.646 124.256C149.592 124.308 149.55 124.37 149.521 124.439C149.492 124.507 149.478 124.581 149.478 124.655V129.66C149.499 129.795 149.567 129.918 149.67 130.006C149.774 130.095 149.906 130.144 150.042 130.144C150.178 130.144 150.31 130.095 150.413 130.006C150.517 129.918 150.585 129.795 150.606 129.66V124.655C150.606 124.508 150.548 124.366 150.443 124.261C150.338 124.157 150.197 124.098 150.049 124.098Z" fill="#F7BE56"/>
<path d="M152.211 124.102C152.063 124.102 151.921 124.16 151.817 124.265C151.712 124.369 151.654 124.511 151.654 124.659V129.664C151.657 129.811 151.717 129.951 151.821 130.054C151.925 130.158 152.064 130.218 152.211 130.222C152.359 130.222 152.501 130.163 152.605 130.058C152.71 129.954 152.769 129.812 152.769 129.664V124.659C152.769 124.511 152.71 124.369 152.605 124.265C152.501 124.16 152.359 124.102 152.211 124.102Z" fill="#F7BE56"/>
<path d="M154.387 124.102C154.239 124.102 154.097 124.16 153.993 124.265C153.888 124.369 153.83 124.511 153.83 124.659V129.664C153.83 129.812 153.888 129.954 153.993 130.058C154.097 130.163 154.239 130.222 154.387 130.222C154.535 130.222 154.677 130.163 154.781 130.058C154.886 129.954 154.945 129.812 154.945 129.664V124.659C154.945 124.511 154.886 124.369 154.781 124.265C154.677 124.16 154.535 124.102 154.387 124.102Z" fill="#F7BE56"/>
<path d="M156.563 124.102C156.415 124.102 156.274 124.16 156.169 124.265C156.064 124.369 156.006 124.511 156.006 124.659V129.664C156.006 129.812 156.064 129.954 156.169 130.058C156.274 130.163 156.415 130.222 156.563 130.222C156.71 130.218 156.85 130.158 156.954 130.054C157.058 129.951 157.117 129.811 157.121 129.664V124.659C157.121 124.511 157.062 124.369 156.958 124.265C156.853 124.16 156.711 124.102 156.563 124.102Z" fill="#F7BE56"/>
<path d="M156.985 130.98H125.705C125.384 130.98 125.076 131.108 124.849 131.335C124.622 131.562 124.494 131.87 124.494 132.191V137.359C124.494 137.68 124.622 137.988 124.849 138.215C125.076 138.442 125.384 138.569 125.705 138.569H156.985C157.306 138.569 157.614 138.442 157.841 138.215C158.068 137.988 158.195 137.68 158.195 137.359V132.191C158.195 131.87 158.068 131.562 157.841 131.335C157.614 131.108 157.306 130.98 156.985 130.98Z" fill="#FCD462"/>
<path d="M158.195 132.191V137.359C158.195 137.68 158.068 137.988 157.841 138.215C157.614 138.442 157.306 138.57 156.985 138.57H125.705C125.491 138.57 125.282 138.514 125.098 138.406C124.914 138.299 124.762 138.144 124.657 137.958C124.811 138.029 124.978 138.066 125.147 138.067H156.427C156.587 138.067 156.746 138.035 156.893 137.973C157.041 137.912 157.175 137.821 157.288 137.707C157.4 137.593 157.489 137.458 157.549 137.31C157.609 137.162 157.639 137.003 157.637 136.843V131.688C157.64 131.477 157.583 131.27 157.474 131.09C157.688 131.184 157.87 131.339 157.998 131.534C158.125 131.73 158.194 131.958 158.195 132.191Z" fill="#F7BE56"/>
<path d="M126.14 131.742C125.992 131.742 125.85 131.801 125.746 131.906C125.641 132.01 125.582 132.152 125.582 132.3V137.359C125.582 137.507 125.641 137.649 125.746 137.753C125.85 137.858 125.992 137.917 126.14 137.917C126.288 137.917 126.43 137.858 126.534 137.753C126.639 137.649 126.697 137.507 126.697 137.359V132.3C126.697 132.152 126.639 132.01 126.534 131.906C126.43 131.801 126.288 131.742 126.14 131.742Z" fill="#F7BE56"/>
<path d="M128.316 131.742C128.168 131.742 128.026 131.801 127.922 131.906C127.817 132.01 127.759 132.152 127.759 132.3V137.359C127.759 137.507 127.817 137.649 127.922 137.753C128.026 137.858 128.168 137.917 128.316 137.917C128.464 137.917 128.606 137.858 128.71 137.753C128.815 137.649 128.874 137.507 128.874 137.359V132.3C128.874 132.152 128.815 132.01 128.71 131.906C128.606 131.801 128.464 131.742 128.316 131.742Z" fill="#F7BE56"/>
<path d="M130.56 131.742C130.486 131.741 130.412 131.754 130.342 131.781C130.273 131.808 130.21 131.849 130.157 131.901C130.104 131.953 130.061 132.015 130.032 132.083C130.004 132.152 129.989 132.226 129.989 132.3V137.359C130.01 137.494 130.078 137.616 130.182 137.705C130.285 137.794 130.417 137.842 130.553 137.842C130.689 137.842 130.821 137.794 130.925 137.705C131.028 137.616 131.097 137.494 131.118 137.359V132.3C131.118 132.152 131.059 132.01 130.954 131.906C130.85 131.801 130.708 131.742 130.56 131.742Z" fill="#F7BE56"/>
<path d="M132.654 131.742C132.506 131.742 132.365 131.801 132.26 131.906C132.155 132.01 132.097 132.152 132.097 132.3V137.359C132.097 137.507 132.155 137.649 132.26 137.753C132.365 137.858 132.506 137.917 132.654 137.917C132.733 137.926 132.813 137.919 132.889 137.895C132.964 137.872 133.034 137.832 133.093 137.779C133.153 137.727 133.2 137.662 133.232 137.589C133.264 137.517 133.28 137.438 133.28 137.359V132.3C133.28 132.152 133.221 132.01 133.117 131.906C133.012 131.801 132.87 131.742 132.722 131.742" fill="#F7BE56"/>
<path d="M134.83 131.742C134.682 131.742 134.541 131.801 134.436 131.906C134.331 132.01 134.273 132.152 134.273 132.3V137.359C134.273 137.507 134.331 137.649 134.436 137.753C134.541 137.858 134.682 137.917 134.83 137.917C134.978 137.917 135.12 137.858 135.225 137.753C135.329 137.649 135.388 137.507 135.388 137.359V132.3C135.388 132.152 135.329 132.01 135.225 131.906C135.12 131.801 134.978 131.742 134.83 131.742Z" fill="#F7BE56"/>
<path d="M137.006 131.742C136.858 131.742 136.717 131.801 136.612 131.906C136.507 132.01 136.449 132.152 136.449 132.3V137.359C136.449 137.507 136.507 137.649 136.612 137.753C136.717 137.858 136.858 137.917 137.006 137.917C137.154 137.917 137.296 137.858 137.401 137.753C137.505 137.649 137.564 137.507 137.564 137.359V132.3C137.564 132.152 137.505 132.01 137.401 131.906C137.296 131.801 137.154 131.742 137.006 131.742Z" fill="#F7BE56"/>
<path d="M139.182 131.742C139.034 131.742 138.893 131.801 138.788 131.906C138.684 132.01 138.625 132.152 138.625 132.3V137.359C138.625 137.507 138.684 137.649 138.788 137.753C138.893 137.858 139.034 137.917 139.182 137.917C139.33 137.917 139.472 137.858 139.577 137.753C139.681 137.649 139.74 137.507 139.74 137.359V132.3C139.74 132.152 139.681 132.01 139.577 131.906C139.472 131.801 139.33 131.742 139.182 131.742Z" fill="#F7BE56"/>
<path d="M141.345 131.742C141.197 131.742 141.055 131.801 140.951 131.906C140.846 132.01 140.787 132.152 140.787 132.3V137.359C140.787 137.507 140.846 137.649 140.951 137.753C141.055 137.858 141.197 137.917 141.345 137.917C141.493 137.917 141.635 137.858 141.739 137.753C141.844 137.649 141.903 137.507 141.903 137.359V132.3C141.903 132.152 141.844 132.01 141.739 131.906C141.635 131.801 141.493 131.742 141.345 131.742Z" fill="#F7BE56"/>
<path d="M143.521 131.742C143.373 131.742 143.231 131.801 143.126 131.906C143.022 132.01 142.963 132.152 142.963 132.3V137.359C142.963 137.507 143.022 137.649 143.126 137.753C143.231 137.858 143.373 137.917 143.521 137.917C143.669 137.917 143.81 137.858 143.915 137.753C144.02 137.649 144.078 137.507 144.078 137.359V132.3C144.078 132.152 144.02 132.01 143.915 131.906C143.81 131.801 143.669 131.742 143.521 131.742Z" fill="#F7BE56"/>
<path d="M145.697 131.742C145.549 131.742 145.407 131.801 145.302 131.906C145.198 132.01 145.139 132.152 145.139 132.3V137.359C145.139 137.507 145.198 137.649 145.302 137.753C145.407 137.858 145.549 137.917 145.697 137.917C145.845 137.917 145.986 137.858 146.091 137.753C146.196 137.649 146.254 137.507 146.254 137.359V132.3C146.254 132.152 146.196 132.01 146.091 131.906C145.986 131.801 145.845 131.742 145.697 131.742Z" fill="#F7BE56"/>
<path d="M147.873 131.742C147.725 131.742 147.583 131.801 147.479 131.906C147.374 132.01 147.315 132.152 147.315 132.3V137.359C147.315 137.507 147.374 137.649 147.479 137.753C147.583 137.858 147.725 137.917 147.873 137.917C148.021 137.917 148.163 137.858 148.267 137.753C148.372 137.649 148.43 137.507 148.43 137.359V132.3C148.43 132.152 148.372 132.01 148.267 131.906C148.163 131.801 148.021 131.742 147.873 131.742Z" fill="#F7BE56"/>
<path d="M150.049 131.742C149.974 131.741 149.9 131.754 149.831 131.781C149.762 131.808 149.699 131.849 149.646 131.901C149.592 131.953 149.55 132.015 149.521 132.083C149.492 132.152 149.478 132.226 149.478 132.3V137.359C149.499 137.494 149.567 137.616 149.67 137.705C149.774 137.794 149.906 137.842 150.042 137.842C150.178 137.842 150.31 137.794 150.413 137.705C150.517 137.616 150.585 137.494 150.606 137.359V132.3C150.606 132.152 150.548 132.01 150.443 131.906C150.338 131.801 150.197 131.742 150.049 131.742Z" fill="#F7BE56"/>
<path d="M152.211 131.742C152.063 131.742 151.921 131.801 151.817 131.906C151.712 132.01 151.654 132.152 151.654 132.3V137.359C151.654 137.507 151.712 137.649 151.817 137.753C151.921 137.858 152.063 137.917 152.211 137.917C152.359 137.917 152.501 137.858 152.605 137.753C152.71 137.649 152.769 137.507 152.769 137.359V132.3C152.769 132.152 152.71 132.01 152.605 131.906C152.501 131.801 152.359 131.742 152.211 131.742Z" fill="#F7BE56"/>
<path d="M154.387 131.742C154.239 131.742 154.097 131.801 153.993 131.906C153.888 132.01 153.83 132.152 153.83 132.3V137.359C153.83 137.507 153.888 137.649 153.993 137.753C154.097 137.858 154.239 137.917 154.387 137.917C154.535 137.917 154.677 137.858 154.781 137.753C154.886 137.649 154.945 137.507 154.945 137.359V132.3C154.945 132.152 154.886 132.01 154.781 131.906C154.677 131.801 154.535 131.742 154.387 131.742Z" fill="#F7BE56"/>
<path d="M156.563 131.742C156.415 131.742 156.274 131.801 156.169 131.906C156.064 132.01 156.006 132.152 156.006 132.3V137.359C156.006 137.507 156.064 137.649 156.169 137.753C156.274 137.858 156.415 137.917 156.563 137.917C156.711 137.917 156.853 137.858 156.958 137.753C157.062 137.649 157.121 137.507 157.121 137.359V132.3C157.121 132.152 157.062 132.01 156.958 131.906C156.853 131.801 156.711 131.742 156.563 131.742Z" fill="#F7BE56"/>
<path d="M124.508 126.48H109.222C110 129.954 111.938 133.058 114.717 135.283C117.495 137.508 120.949 138.72 124.508 138.72H125.46C125.19 138.661 124.949 138.512 124.775 138.297C124.602 138.082 124.508 137.814 124.508 137.537V132.192C124.508 132.034 124.539 131.876 124.6 131.729C124.661 131.582 124.75 131.449 124.863 131.337C124.975 131.224 125.108 131.135 125.255 131.074C125.402 131.013 125.56 130.982 125.718 130.982H125.542C125.255 130.94 124.992 130.795 124.802 130.576C124.613 130.356 124.508 130.076 124.508 129.785V126.48Z" fill="#3A5463"/>
<path d="M124.508 121.719H108.882V122.943C108.858 124.131 108.973 125.317 109.222 126.479H124.508V124.548C124.508 124.227 124.636 123.919 124.863 123.692C125.089 123.465 125.397 123.337 125.718 123.337C125.558 123.337 125.4 123.305 125.252 123.244C125.104 123.182 124.97 123.092 124.858 122.978C124.745 122.864 124.656 122.729 124.596 122.581C124.536 122.432 124.506 122.273 124.508 122.113V121.719Z" fill="#49B99E"/>
<path d="M124.671 116.281H110.31C109.53 117.997 109.07 119.84 108.95 121.721H124.508V116.961C124.506 116.746 124.562 116.535 124.671 116.349" fill="#D7DEE3"/>
<path d="M124.508 107.277C121.531 107.279 118.617 108.126 116.103 109.72C113.589 111.313 111.58 113.589 110.31 116.281H124.671C124.779 116.099 124.932 115.948 125.116 115.843C125.299 115.739 125.507 115.683 125.718 115.682C125.397 115.682 125.089 115.555 124.862 115.328C124.635 115.101 124.508 114.793 124.508 114.472V109.249C124.508 108.928 124.635 108.62 124.862 108.393C125.089 108.166 125.397 108.039 125.718 108.039C125.476 108.038 125.239 107.965 125.038 107.83C124.837 107.694 124.681 107.502 124.59 107.277H124.508Z" fill="#49B99E"/>
<path d="M124.59 107.277C124.681 107.502 124.837 107.694 125.038 107.83C125.239 107.965 125.476 108.038 125.718 108.039C125.503 108.04 125.292 107.982 125.108 107.872C124.923 107.761 124.772 107.603 124.671 107.413C124.825 107.485 124.992 107.522 125.161 107.522H127.323C126.425 107.365 125.515 107.283 124.603 107.277" fill="#E5C668"/>
<path d="M124.671 107.441C124.772 107.631 124.923 107.789 125.108 107.9C125.292 108.01 125.503 108.068 125.718 108.067H129.35C128.686 107.852 128.009 107.679 127.323 107.55H125.12C124.951 107.55 124.784 107.513 124.63 107.441" fill="#E1B45E"/>
<path d="M126.14 114.921C125.992 114.921 125.85 114.862 125.746 114.757C125.641 114.653 125.582 114.511 125.582 114.363V109.358C125.582 109.21 125.641 109.069 125.746 108.964C125.85 108.859 125.992 108.801 126.14 108.801C126.288 108.801 126.43 108.859 126.534 108.964C126.639 109.069 126.698 109.21 126.698 109.358V114.363C126.698 114.511 126.639 114.653 126.534 114.757C126.43 114.862 126.288 114.921 126.14 114.921ZM128.316 114.921C128.168 114.921 128.026 114.862 127.922 114.757C127.817 114.653 127.758 114.511 127.758 114.363V109.358C127.758 109.21 127.817 109.069 127.922 108.964C128.026 108.859 128.168 108.801 128.316 108.801C128.464 108.801 128.606 108.859 128.71 108.964C128.815 109.069 128.874 109.21 128.874 109.358V114.363C128.874 114.511 128.815 114.653 128.71 114.757C128.606 114.862 128.464 114.921 128.316 114.921ZM130.492 114.921C130.418 114.922 130.344 114.909 130.274 114.882C130.205 114.855 130.142 114.814 130.089 114.762C130.036 114.71 129.993 114.648 129.965 114.58C129.936 114.511 129.921 114.437 129.921 114.363V109.358C129.942 109.224 130.01 109.101 130.114 109.012C130.217 108.924 130.349 108.875 130.485 108.875C130.622 108.875 130.753 108.924 130.857 109.012C130.96 109.101 131.029 109.224 131.05 109.358V114.363C131.05 114.511 130.991 114.653 130.886 114.757C130.782 114.862 130.64 114.921 130.492 114.921ZM129.35 108.039H125.718C125.397 108.039 125.09 108.167 124.863 108.394C124.636 108.621 124.508 108.928 124.508 109.249V114.472C124.508 114.793 124.636 115.101 124.863 115.328C125.09 115.555 125.397 115.682 125.718 115.682C125.505 115.683 125.296 115.626 125.112 115.519C124.927 115.411 124.775 115.256 124.671 115.07C124.825 115.142 124.992 115.179 125.161 115.179H138.122C137.945 114.866 137.754 114.567 137.564 114.268V114.363C137.564 114.511 137.505 114.653 137.401 114.757C137.296 114.862 137.154 114.921 137.006 114.921C136.859 114.921 136.717 114.862 136.612 114.757C136.508 114.653 136.449 114.511 136.449 114.363V112.799C136.109 112.405 135.755 112.024 135.388 111.67V114.39C135.388 114.538 135.329 114.68 135.225 114.785C135.12 114.889 134.978 114.948 134.83 114.948C134.683 114.948 134.541 114.889 134.436 114.785C134.332 114.68 134.273 114.538 134.273 114.39V110.718C133.937 110.446 133.584 110.188 133.212 109.943V114.39C133.212 114.538 133.153 114.68 133.049 114.785C132.944 114.889 132.802 114.948 132.654 114.948C132.507 114.948 132.365 114.889 132.26 114.785C132.156 114.68 132.097 114.538 132.097 114.39V109.358C132.097 109.358 132.097 109.277 132.097 109.236C131.229 108.754 130.318 108.353 129.377 108.039" fill="#E5C668"/>
<path d="M124.671 115.07C124.775 115.256 124.927 115.411 125.112 115.519C125.296 115.626 125.505 115.683 125.718 115.682H138.394L138.122 115.179H125.12C124.951 115.179 124.784 115.142 124.63 115.07" fill="#E1B45E"/>
<path d="M126.14 108.801C125.992 108.801 125.85 108.86 125.746 108.964C125.641 109.069 125.582 109.211 125.582 109.358V114.363C125.582 114.511 125.641 114.653 125.746 114.757C125.85 114.862 125.992 114.921 126.14 114.921C126.288 114.921 126.43 114.862 126.534 114.757C126.639 114.653 126.697 114.511 126.697 114.363V109.358C126.697 109.211 126.639 109.069 126.534 108.964C126.43 108.86 126.288 108.801 126.14 108.801Z" fill="#E1B45E"/>
<path d="M128.316 108.801C128.168 108.801 128.026 108.86 127.922 108.964C127.817 109.069 127.759 109.211 127.759 109.358V114.363C127.759 114.511 127.817 114.653 127.922 114.757C128.026 114.862 128.168 114.921 128.316 114.921C128.464 114.921 128.606 114.862 128.71 114.757C128.815 114.653 128.874 114.511 128.874 114.363V109.358C128.874 109.211 128.815 109.069 128.71 108.964C128.606 108.86 128.464 108.801 128.316 108.801Z" fill="#E1B45E"/>
<path d="M130.56 108.801C130.486 108.799 130.412 108.812 130.342 108.839C130.273 108.867 130.21 108.907 130.157 108.959C130.104 109.011 130.061 109.073 130.032 109.142C130.004 109.211 129.989 109.284 129.989 109.359V114.363C130.01 114.498 130.078 114.621 130.182 114.709C130.285 114.798 130.417 114.847 130.553 114.847C130.689 114.847 130.821 114.798 130.925 114.709C131.028 114.621 131.097 114.498 131.118 114.363V109.359C131.118 109.211 131.059 109.069 130.954 108.964C130.85 108.86 130.708 108.801 130.56 108.801Z" fill="#E1B45E"/>
<path d="M132.11 109.234C132.11 109.234 132.11 109.316 132.11 109.357V114.362C132.11 114.509 132.169 114.651 132.274 114.756C132.378 114.86 132.52 114.919 132.668 114.919C132.816 114.919 132.958 114.86 133.062 114.756C133.167 114.651 133.226 114.509 133.226 114.362V109.914C132.872 109.67 132.505 109.452 132.124 109.234" fill="#E1B45E"/>
<path d="M134.273 110.691V114.363C134.273 114.511 134.331 114.653 134.436 114.758C134.541 114.862 134.682 114.921 134.83 114.921C134.978 114.921 135.12 114.862 135.225 114.758C135.329 114.653 135.388 114.511 135.388 114.363V111.643C135.034 111.303 134.667 110.977 134.273 110.664" fill="#E1B45E"/>
<path d="M136.449 112.797V114.361C136.449 114.509 136.507 114.65 136.612 114.755C136.717 114.86 136.858 114.918 137.006 114.918C137.154 114.918 137.296 114.86 137.401 114.755C137.505 114.65 137.564 114.509 137.564 114.361V114.238C137.223 113.726 136.85 113.236 136.449 112.77" fill="#E1B45E"/>
<path d="M126.14 122.577C126.066 122.577 125.992 122.562 125.924 122.533C125.855 122.504 125.793 122.462 125.741 122.409C125.689 122.355 125.648 122.292 125.621 122.223C125.594 122.154 125.581 122.08 125.583 122.005V116.96C125.583 116.812 125.641 116.67 125.746 116.566C125.85 116.461 125.992 116.402 126.14 116.402C126.288 116.402 126.43 116.461 126.534 116.566C126.639 116.67 126.698 116.812 126.698 116.96V121.965C126.7 122.039 126.686 122.113 126.659 122.182C126.632 122.251 126.591 122.315 126.539 122.368C126.487 122.421 126.425 122.463 126.357 122.492C126.288 122.521 126.215 122.536 126.14 122.536V122.577ZM128.316 122.536C128.242 122.536 128.168 122.521 128.1 122.492C128.031 122.463 127.969 122.421 127.917 122.368C127.865 122.315 127.824 122.251 127.797 122.182C127.77 122.113 127.757 122.039 127.759 121.965V116.96C127.759 116.812 127.817 116.67 127.922 116.566C128.026 116.461 128.168 116.402 128.316 116.402C128.463 116.406 128.603 116.466 128.707 116.569C128.81 116.673 128.87 116.813 128.874 116.96V121.965C128.874 122.114 128.815 122.257 128.711 122.364C128.607 122.471 128.465 122.532 128.316 122.536ZM130.492 122.536C130.417 122.536 130.343 122.521 130.274 122.492C130.204 122.464 130.141 122.422 130.088 122.369C130.035 122.315 129.993 122.253 129.964 122.183C129.936 122.114 129.921 122.04 129.921 121.965V116.96C129.942 116.825 130.01 116.702 130.114 116.614C130.217 116.525 130.349 116.477 130.485 116.477C130.622 116.477 130.753 116.525 130.857 116.614C130.96 116.702 131.029 116.825 131.05 116.96V121.965C131.05 122.114 130.991 122.257 130.887 122.364C130.783 122.471 130.641 122.532 130.492 122.536ZM132.655 122.536C132.505 122.532 132.364 122.471 132.259 122.364C132.155 122.257 132.097 122.114 132.097 121.965V116.96C132.1 116.813 132.16 116.673 132.264 116.569C132.368 116.466 132.508 116.406 132.655 116.402C132.733 116.393 132.813 116.4 132.889 116.423C132.965 116.447 133.034 116.487 133.094 116.539C133.153 116.592 133.2 116.657 133.232 116.729C133.264 116.802 133.281 116.881 133.28 116.96V121.965C133.282 122.039 133.269 122.113 133.242 122.182C133.214 122.251 133.174 122.315 133.122 122.368C133.07 122.421 133.008 122.463 132.939 122.492C132.871 122.521 132.797 122.536 132.723 122.536H132.655ZM134.899 122.536C134.824 122.536 134.751 122.521 134.682 122.492C134.613 122.463 134.551 122.421 134.499 122.368C134.447 122.315 134.407 122.251 134.379 122.182C134.352 122.113 134.339 122.039 134.341 121.965V116.96C134.341 116.812 134.4 116.67 134.504 116.566C134.609 116.461 134.751 116.402 134.899 116.402C135.046 116.402 135.188 116.461 135.293 116.566C135.397 116.67 135.456 116.812 135.456 116.96V121.965C135.458 122.039 135.445 122.113 135.418 122.182C135.39 122.251 135.35 122.315 135.298 122.368C135.246 122.421 135.184 122.463 135.115 122.492C135.047 122.521 134.973 122.536 134.899 122.536ZM137.075 122.536C137 122.536 136.926 122.521 136.858 122.492C136.789 122.463 136.727 122.421 136.675 122.368C136.623 122.315 136.583 122.251 136.555 122.182C136.528 122.113 136.515 122.039 136.517 121.965V116.96C136.517 116.812 136.576 116.67 136.68 116.566C136.785 116.461 136.927 116.402 137.075 116.402C137.221 116.406 137.361 116.466 137.465 116.569C137.569 116.673 137.629 116.813 137.632 116.96V121.965C137.632 122.114 137.574 122.257 137.47 122.364C137.365 122.471 137.224 122.532 137.075 122.536ZM138.435 115.641H125.719C125.507 115.641 125.3 115.697 125.116 115.802C124.933 115.907 124.779 116.057 124.671 116.239C124.562 116.424 124.506 116.636 124.508 116.851V122.073C124.506 122.234 124.536 122.392 124.596 122.541C124.656 122.689 124.745 122.824 124.858 122.938C124.97 123.052 125.104 123.142 125.252 123.204C125.4 123.266 125.558 123.297 125.719 123.297C125.504 123.295 125.294 123.236 125.11 123.126C124.926 123.016 124.775 122.859 124.671 122.672C124.825 122.743 124.992 122.78 125.161 122.781H140.121C140.115 121.567 139.969 120.357 139.686 119.177V121.897C139.686 122.046 139.627 122.189 139.523 122.296C139.419 122.403 139.277 122.464 139.128 122.468C139.054 122.468 138.98 122.453 138.912 122.424C138.843 122.395 138.781 122.353 138.729 122.3C138.677 122.247 138.636 122.183 138.609 122.114C138.582 122.045 138.569 121.971 138.571 121.897V116.96C138.571 116.877 138.589 116.795 138.625 116.72C138.66 116.645 138.711 116.578 138.775 116.525C138.639 116.225 138.503 115.926 138.353 115.641" fill="#E5C668"/>
<path d="M124.671 122.715C124.775 122.902 124.926 123.059 125.11 123.169C125.294 123.279 125.504 123.338 125.718 123.34H140.175C140.175 123.204 140.175 123.082 140.175 122.946V122.824H125.12C124.951 122.823 124.784 122.786 124.63 122.715" fill="#E1B45E"/>
<path d="M126.14 116.443C125.992 116.443 125.85 116.502 125.746 116.606C125.641 116.711 125.582 116.853 125.582 117.001V122.006C125.582 122.153 125.641 122.295 125.746 122.4C125.85 122.504 125.992 122.563 126.14 122.563C126.288 122.563 126.43 122.504 126.534 122.4C126.639 122.295 126.697 122.153 126.697 122.006V116.96C126.697 116.812 126.639 116.67 126.534 116.566C126.43 116.461 126.288 116.402 126.14 116.402" fill="#E1B45E"/>
<path d="M128.316 116.443C128.168 116.443 128.026 116.502 127.922 116.606C127.817 116.711 127.758 116.853 127.758 117.001V122.006C127.757 122.08 127.77 122.154 127.797 122.223C127.824 122.292 127.865 122.355 127.917 122.409C127.969 122.462 128.031 122.504 128.099 122.533C128.168 122.562 128.242 122.577 128.316 122.577C128.465 122.573 128.607 122.511 128.711 122.405C128.815 122.298 128.874 122.155 128.874 122.006V116.96C128.87 116.813 128.81 116.673 128.707 116.569C128.603 116.466 128.463 116.406 128.316 116.402" fill="#E1B45E"/>
<path d="M130.56 116.443C130.411 116.443 130.268 116.501 130.161 116.606C130.054 116.71 129.992 116.852 129.989 117.001V122.006C129.976 122.087 129.981 122.17 130.004 122.25C130.026 122.329 130.066 122.402 130.119 122.465C130.173 122.528 130.239 122.578 130.314 122.612C130.389 122.647 130.471 122.665 130.553 122.665C130.636 122.665 130.717 122.647 130.792 122.612C130.867 122.578 130.933 122.528 130.987 122.465C131.041 122.402 131.08 122.329 131.103 122.25C131.125 122.17 131.13 122.087 131.118 122.006V116.96C131.114 116.813 131.054 116.673 130.95 116.569C130.847 116.466 130.707 116.406 130.56 116.402" fill="#E1B45E"/>
<path d="M132.654 116.443C132.507 116.447 132.368 116.506 132.264 116.61C132.16 116.714 132.1 116.854 132.097 117.001V122.006C132.097 122.155 132.155 122.298 132.259 122.405C132.363 122.511 132.505 122.573 132.654 122.577C132.729 122.577 132.802 122.562 132.871 122.533C132.939 122.504 133.001 122.462 133.053 122.409C133.105 122.355 133.146 122.292 133.173 122.223C133.201 122.154 133.214 122.08 133.212 122.006V116.96C133.212 116.812 133.153 116.67 133.049 116.566C132.944 116.461 132.802 116.402 132.654 116.402" fill="#E1B45E"/>
<path d="M134.83 116.443C134.682 116.443 134.541 116.502 134.436 116.606C134.331 116.711 134.273 116.853 134.273 117.001V122.006C134.273 122.079 134.287 122.151 134.315 122.219C134.343 122.287 134.384 122.348 134.436 122.4C134.488 122.452 134.549 122.493 134.617 122.521C134.685 122.549 134.757 122.563 134.83 122.563C134.904 122.563 134.976 122.549 135.044 122.521C135.111 122.493 135.173 122.452 135.225 122.4C135.276 122.348 135.317 122.287 135.345 122.219C135.373 122.151 135.388 122.079 135.388 122.006V116.96C135.388 116.812 135.329 116.67 135.225 116.566C135.12 116.461 134.978 116.402 134.83 116.402" fill="#E1B45E"/>
<path d="M137.006 116.443C136.859 116.443 136.717 116.502 136.612 116.606C136.508 116.711 136.449 116.853 136.449 117.001V122.006C136.447 122.08 136.46 122.154 136.487 122.223C136.515 122.292 136.555 122.355 136.607 122.409C136.659 122.462 136.721 122.504 136.79 122.533C136.858 122.562 136.932 122.577 137.006 122.577C137.156 122.573 137.297 122.511 137.402 122.405C137.506 122.298 137.564 122.155 137.564 122.006V116.96C137.561 116.813 137.501 116.673 137.397 116.569C137.293 116.466 137.153 116.406 137.006 116.402" fill="#E1B45E"/>
<path d="M138.829 116.566C138.765 116.62 138.714 116.686 138.679 116.762C138.643 116.837 138.625 116.919 138.625 117.002V122.006C138.623 122.081 138.636 122.155 138.663 122.224C138.69 122.293 138.731 122.356 138.783 122.41C138.835 122.463 138.897 122.505 138.966 122.534C139.034 122.563 139.108 122.578 139.182 122.578C139.331 122.574 139.473 122.512 139.577 122.406C139.682 122.299 139.74 122.156 139.74 122.006V119.286C139.516 118.355 139.211 117.445 138.829 116.566Z" fill="#E1B45E"/>
<path d="M126.276 130.235C126.128 130.235 125.986 130.176 125.882 130.072C125.777 129.967 125.718 129.825 125.718 129.677V124.659C125.718 124.511 125.777 124.369 125.882 124.265C125.986 124.16 126.128 124.101 126.276 124.101C126.424 124.101 126.566 124.16 126.67 124.265C126.775 124.369 126.834 124.511 126.834 124.659V129.664C126.834 129.812 126.775 129.954 126.67 130.058C126.566 130.163 126.424 130.221 126.276 130.221V130.235ZM128.452 130.221C128.304 130.221 128.162 130.163 128.058 130.058C127.953 129.954 127.894 129.812 127.894 129.664V124.659C127.894 124.511 127.953 124.369 128.058 124.265C128.162 124.16 128.304 124.101 128.452 124.101C128.6 124.101 128.742 124.16 128.846 124.265C128.951 124.369 129.01 124.511 129.01 124.659V129.664C129.006 129.811 128.946 129.95 128.843 130.054C128.739 130.158 128.599 130.218 128.452 130.221ZM130.628 130.221C130.479 130.221 130.336 130.163 130.229 130.059C130.122 129.955 130.06 129.813 130.057 129.664V124.659C130.078 124.524 130.146 124.402 130.25 124.313C130.353 124.224 130.485 124.176 130.621 124.176C130.758 124.176 130.889 124.224 130.993 124.313C131.096 124.402 131.165 124.524 131.186 124.659V129.664C131.182 129.811 131.122 129.95 131.019 130.054C130.915 130.158 130.775 130.218 130.628 130.221ZM132.79 130.221C132.644 130.218 132.504 130.158 132.4 130.054C132.296 129.95 132.236 129.811 132.233 129.664V124.659C132.233 124.511 132.292 124.369 132.396 124.265C132.501 124.16 132.643 124.101 132.79 124.101C132.938 124.101 133.08 124.16 133.185 124.265C133.289 124.369 133.348 124.511 133.348 124.659V129.664C133.348 129.812 133.289 129.954 133.185 130.058C133.08 130.163 132.938 130.221 132.79 130.221ZM134.966 130.221C134.819 130.221 134.677 130.163 134.572 130.058C134.468 129.954 134.409 129.812 134.409 129.664V124.659C134.409 124.511 134.468 124.369 134.572 124.265C134.677 124.16 134.819 124.101 134.966 124.101C135.114 124.101 135.256 124.16 135.361 124.265C135.465 124.369 135.524 124.511 135.524 124.659V129.664C135.524 129.812 135.465 129.954 135.361 130.058C135.256 130.163 135.114 130.221 134.966 130.221ZM137.142 130.221C136.995 130.221 136.853 130.163 136.748 130.058C136.644 129.954 136.585 129.812 136.585 129.664V124.659C136.585 124.511 136.644 124.369 136.748 124.265C136.853 124.16 136.995 124.101 137.142 124.101C137.29 124.101 137.432 124.16 137.537 124.265C137.641 124.369 137.7 124.511 137.7 124.659V129.664C137.697 129.811 137.637 129.95 137.533 130.054C137.429 130.158 137.289 130.218 137.142 130.221ZM140.311 123.34H125.718C125.397 123.34 125.09 123.467 124.863 123.694C124.636 123.921 124.508 124.229 124.508 124.55V129.773C124.508 130.063 124.613 130.343 124.802 130.563C124.992 130.783 125.254 130.927 125.542 130.969C125.359 130.941 125.186 130.872 125.035 130.765C124.884 130.659 124.759 130.52 124.671 130.357C124.822 130.435 124.991 130.472 125.161 130.466H138.271C138.394 130.235 138.516 130.004 138.625 129.759V124.659C138.625 124.511 138.684 124.369 138.788 124.265C138.893 124.16 139.035 124.101 139.182 124.101C139.33 124.101 139.472 124.16 139.577 124.265C139.681 124.369 139.74 124.511 139.74 124.659V126.685C140.002 125.589 140.148 124.467 140.175 123.34" fill="#E5C668"/>
<path d="M124.671 130.357C124.759 130.52 124.884 130.659 125.035 130.765C125.186 130.872 125.359 130.941 125.542 130.969H137.972L138.271 130.453H125.12C124.95 130.459 124.782 130.421 124.63 130.344" fill="#E1B45E"/>
<path d="M126.14 124.102C125.992 124.102 125.85 124.16 125.746 124.265C125.641 124.369 125.582 124.511 125.582 124.659V129.664C125.582 129.812 125.641 129.954 125.746 130.058C125.85 130.163 125.992 130.222 126.14 130.222C126.288 130.222 126.43 130.163 126.534 130.058C126.639 129.954 126.697 129.812 126.697 129.664V124.659C126.697 124.511 126.639 124.369 126.534 124.265C126.43 124.16 126.288 124.102 126.14 124.102Z" fill="#E1B45E"/>
<path d="M128.316 124.102C128.168 124.102 128.026 124.16 127.922 124.265C127.817 124.369 127.759 124.511 127.759 124.659V129.664C127.759 129.812 127.817 129.954 127.922 130.058C128.026 130.163 128.168 130.222 128.316 130.222C128.463 130.218 128.603 130.158 128.707 130.054C128.81 129.951 128.87 129.811 128.874 129.664V124.659C128.874 124.511 128.815 124.369 128.71 124.265C128.606 124.16 128.464 124.102 128.316 124.102Z" fill="#E1B45E"/>
<path d="M130.56 124.098C130.486 124.096 130.412 124.109 130.342 124.136C130.273 124.164 130.21 124.204 130.157 124.256C130.104 124.308 130.061 124.37 130.032 124.439C130.004 124.507 129.989 124.581 129.989 124.655V129.66C130.01 129.795 130.078 129.918 130.182 130.006C130.285 130.095 130.417 130.144 130.553 130.144C130.689 130.144 130.821 130.095 130.925 130.006C131.028 129.918 131.097 129.795 131.118 129.66V124.655C131.118 124.508 131.059 124.366 130.954 124.261C130.85 124.157 130.708 124.098 130.56 124.098Z" fill="#E1B45E"/>
<path d="M132.654 124.102C132.506 124.102 132.365 124.16 132.26 124.265C132.155 124.369 132.097 124.511 132.097 124.659V129.664C132.1 129.811 132.16 129.951 132.264 130.054C132.368 130.158 132.507 130.218 132.654 130.222C132.802 130.222 132.944 130.163 133.049 130.058C133.153 129.954 133.212 129.812 133.212 129.664V124.659C133.212 124.511 133.153 124.369 133.049 124.265C132.944 124.16 132.802 124.102 132.654 124.102Z" fill="#E1B45E"/>
<path d="M134.83 124.102C134.682 124.102 134.541 124.16 134.436 124.265C134.331 124.369 134.273 124.511 134.273 124.659V129.664C134.273 129.812 134.331 129.954 134.436 130.058C134.541 130.163 134.682 130.222 134.83 130.222C134.978 130.222 135.12 130.163 135.225 130.058C135.329 129.954 135.388 129.812 135.388 129.664V124.659C135.388 124.511 135.329 124.369 135.225 124.265C135.12 124.16 134.978 124.102 134.83 124.102Z" fill="#E1B45E"/>
<path d="M137.006 124.102C136.858 124.102 136.717 124.16 136.612 124.265C136.507 124.369 136.449 124.511 136.449 124.659V129.664C136.449 129.812 136.507 129.954 136.612 130.058C136.717 130.163 136.858 130.222 137.006 130.222C137.153 130.218 137.293 130.158 137.397 130.054C137.501 129.951 137.56 129.811 137.564 129.664V124.659C137.564 124.511 137.505 124.369 137.401 124.265C137.296 124.16 137.154 124.102 137.006 124.102Z" fill="#E1B45E"/>
<path d="M139.182 124.102C139.034 124.102 138.893 124.16 138.788 124.265C138.684 124.369 138.625 124.511 138.625 124.659V129.759C139.103 128.776 139.477 127.746 139.74 126.686V124.659C139.74 124.511 139.681 124.369 139.577 124.265C139.472 124.16 139.33 124.102 139.182 124.102Z" fill="#E1B45E"/>
<path d="M126.14 137.862C125.992 137.862 125.85 137.803 125.746 137.699C125.641 137.594 125.582 137.452 125.582 137.305V132.3C125.582 132.152 125.641 132.01 125.746 131.906C125.85 131.801 125.992 131.742 126.14 131.742C126.288 131.742 126.43 131.801 126.534 131.906C126.639 132.01 126.697 132.152 126.697 132.3V137.359C126.697 137.507 126.639 137.649 126.534 137.753C126.43 137.858 126.288 137.917 126.14 137.917V137.862ZM128.316 137.917C128.168 137.917 128.026 137.858 127.922 137.753C127.817 137.649 127.758 137.507 127.758 137.359V132.3C127.758 132.152 127.817 132.01 127.922 131.906C128.026 131.801 128.168 131.742 128.316 131.742C128.464 131.742 128.606 131.801 128.71 131.906C128.815 132.01 128.873 132.152 128.873 132.3V137.359C128.873 137.507 128.815 137.649 128.71 137.753C128.606 137.858 128.464 137.917 128.316 137.917ZM137.972 131.035H125.732C125.411 131.035 125.103 131.163 124.876 131.39C124.649 131.617 124.521 131.924 124.521 132.245V137.359C124.521 137.635 124.616 137.903 124.789 138.118C124.962 138.334 125.204 138.483 125.473 138.542C125.307 138.509 125.15 138.439 125.014 138.338C124.878 138.237 124.765 138.107 124.685 137.957C124.838 138.029 125.005 138.066 125.174 138.066H128.506C129.027 137.93 129.54 137.766 130.043 137.577C129.973 137.482 129.935 137.368 129.934 137.25V132.3C129.955 132.165 130.024 132.042 130.127 131.954C130.231 131.865 130.362 131.816 130.499 131.816C130.635 131.816 130.767 131.865 130.87 131.954C130.974 132.042 131.042 132.165 131.063 132.3V137.209C131.417 137.033 131.77 136.856 132.11 136.665V132.3C132.11 132.152 132.169 132.01 132.274 131.906C132.378 131.801 132.52 131.742 132.668 131.742C132.816 131.742 132.958 131.801 133.062 131.906C133.167 132.01 133.225 132.152 133.225 132.3V135.999C133.588 135.754 133.942 135.496 134.286 135.224V132.3C134.286 132.152 134.345 132.01 134.45 131.906C134.554 131.801 134.696 131.742 134.844 131.742C134.992 131.742 135.134 131.801 135.238 131.906C135.343 132.01 135.401 132.152 135.401 132.3V134.231C135.769 133.877 136.122 133.497 136.462 133.102V132.3C136.462 132.152 136.521 132.01 136.626 131.906C136.73 131.801 136.872 131.742 137.02 131.742C137.151 131.759 137.271 131.822 137.36 131.919C137.564 131.62 137.754 131.321 137.945 131.008" fill="#E5C668"/>
<path d="M124.671 138.012C124.752 138.161 124.864 138.291 125 138.392C125.137 138.493 125.294 138.563 125.46 138.597C126.485 138.542 127.501 138.383 128.493 138.121H125.12C124.951 138.12 124.784 138.083 124.63 138.012" fill="#E1B45E"/>
<path d="M126.14 131.742C125.992 131.742 125.85 131.801 125.746 131.906C125.641 132.01 125.582 132.152 125.582 132.3V137.359C125.582 137.507 125.641 137.649 125.746 137.753C125.85 137.858 125.992 137.917 126.14 137.917C126.288 137.917 126.43 137.858 126.534 137.753C126.639 137.649 126.697 137.507 126.697 137.359V132.3C126.697 132.152 126.639 132.01 126.534 131.906C126.43 131.801 126.288 131.742 126.14 131.742Z" fill="#E1B45E"/>
<path d="M128.316 131.742C128.168 131.742 128.026 131.801 127.922 131.906C127.817 132.01 127.759 132.152 127.759 132.3V137.359C127.759 137.507 127.817 137.649 127.922 137.753C128.026 137.858 128.168 137.917 128.316 137.917C128.464 137.917 128.606 137.858 128.71 137.753C128.815 137.649 128.874 137.507 128.874 137.359V132.3C128.874 132.152 128.815 132.01 128.71 131.906C128.606 131.801 128.464 131.742 128.316 131.742Z" fill="#E1B45E"/>
<path d="M130.56 131.742C130.486 131.741 130.412 131.754 130.342 131.781C130.273 131.808 130.21 131.849 130.157 131.901C130.104 131.953 130.061 132.015 130.032 132.083C130.004 132.152 129.989 132.226 129.989 132.3V137.359C129.99 137.477 130.028 137.591 130.098 137.686L131.118 137.264V132.3C131.118 132.152 131.059 132.01 130.954 131.906C130.85 131.801 130.708 131.742 130.56 131.742Z" fill="#E1B45E"/>
<path d="M132.654 131.742C132.506 131.742 132.365 131.801 132.26 131.906C132.155 132.01 132.097 132.152 132.097 132.3V136.665C132.504 136.467 132.899 136.244 133.28 135.999V132.3C133.28 132.152 133.221 132.01 133.117 131.906C133.012 131.801 132.87 131.742 132.722 131.742" fill="#E1B45E"/>
<path d="M134.83 131.742C134.682 131.742 134.541 131.801 134.436 131.906C134.331 132.01 134.273 132.152 134.273 132.3V135.21C134.667 134.897 135.034 134.571 135.388 134.231V132.3C135.388 132.152 135.329 132.01 135.225 131.906C135.12 131.801 134.978 131.742 134.83 131.742Z" fill="#E1B45E"/>
<path d="M137.006 131.742C136.858 131.742 136.717 131.801 136.612 131.906C136.507 132.01 136.449 132.152 136.449 132.3V133.102C136.775 132.721 137.088 132.313 137.387 131.892C137.284 131.795 137.148 131.742 137.006 131.742Z" fill="#E1B45E"/>
<path d="M122.563 107.277C119.461 107.275 116.427 108.192 113.846 109.914C111.266 111.636 109.254 114.085 108.065 116.951C106.877 119.817 106.565 122.971 107.17 126.014C107.774 129.057 109.268 131.852 111.462 134.046C113.656 136.24 116.451 137.734 119.494 138.338C122.537 138.943 125.691 138.631 128.557 137.443C131.423 136.254 133.871 134.242 135.593 131.661C137.315 129.081 138.233 126.047 138.231 122.945C138.227 118.79 136.575 114.808 133.638 111.87C130.7 108.933 126.717 107.281 122.563 107.277Z" fill="#FCD462"/>
<path d="M122.563 111.301C120.257 111.298 118.001 111.98 116.083 113.259C114.164 114.539 112.668 116.359 111.784 118.489C110.9 120.62 110.668 122.964 111.118 125.226C111.567 127.489 112.677 129.567 114.308 131.197C115.939 132.828 118.017 133.939 120.279 134.388C122.541 134.837 124.886 134.605 127.016 133.721C129.146 132.838 130.966 131.342 132.246 129.423C133.526 127.504 134.207 125.249 134.205 122.942C134.205 119.855 132.978 116.894 130.795 114.711C128.612 112.527 125.651 111.301 122.563 111.301Z" fill="#F7BE56"/>
<path d="M127.282 123.952C126.849 123.348 126.255 122.877 125.569 122.592C124.859 122.303 124.127 122.076 123.379 121.912V117.696C123.907 117.759 124.409 117.961 124.834 118.281C125.106 118.519 125.328 118.808 125.487 119.133C125.646 119.457 125.738 119.81 125.759 120.171L127.432 120.049C127.415 119.303 127.189 118.577 126.779 117.954C126.355 117.336 125.753 116.861 125.052 116.594C124.515 116.384 123.952 116.247 123.379 116.186V113.738H121.747V116.173C121.156 116.224 120.575 116.356 120.02 116.567C119.339 116.837 118.759 117.312 118.361 117.927C117.989 118.482 117.79 119.136 117.79 119.804C117.812 120.378 117.996 120.934 118.32 121.409C118.66 121.927 119.129 122.348 119.68 122.633C120.345 122.945 121.043 123.182 121.761 123.34V128.127C121.444 128.063 121.134 127.967 120.836 127.841C120.29 127.64 119.816 127.28 119.476 126.808C119.163 126.316 118.972 125.756 118.918 125.176L117.273 125.325C117.278 126.172 117.528 126.998 117.994 127.705C118.464 128.408 119.131 128.957 119.911 129.283C120.497 129.506 121.11 129.647 121.734 129.705V132.18H123.365V129.759C124.091 129.732 124.806 129.57 125.473 129.283C126.187 128.986 126.798 128.484 127.228 127.841C127.626 127.251 127.839 126.555 127.84 125.842C127.851 125.17 127.657 124.51 127.282 123.952ZM121.747 121.531C121.12 121.409 120.524 121.164 119.993 120.81C119.827 120.664 119.695 120.484 119.606 120.282C119.516 120.08 119.472 119.861 119.476 119.641C119.486 119.373 119.558 119.111 119.685 118.875C119.813 118.64 119.992 118.436 120.21 118.281C120.661 117.961 121.195 117.777 121.747 117.75V121.531ZM125.827 127.121C125.527 127.491 125.132 127.773 124.685 127.937C124.28 128.075 123.86 128.162 123.434 128.195V123.761C123.844 123.861 124.248 123.983 124.644 124.129C125.107 124.271 125.521 124.539 125.841 124.904C126.074 125.218 126.198 125.6 126.194 125.992C126.175 126.403 126.028 126.798 125.773 127.121H125.827Z" fill="#FCD462"/>
<path d="M122.563 108.039C122.504 108.039 122.447 108.061 122.404 108.102C122.361 108.142 122.336 108.198 122.332 108.257V110.405C122.335 110.466 122.361 110.523 122.403 110.565C122.446 110.608 122.503 110.633 122.563 110.637C122.622 110.633 122.678 110.607 122.718 110.564C122.758 110.521 122.781 110.465 122.781 110.405V108.257C122.781 108.199 122.758 108.144 122.717 108.103C122.676 108.062 122.621 108.039 122.563 108.039Z" fill="#F7BE56"/>
<path d="M122.563 135.266C122.503 135.269 122.446 135.294 122.403 135.337C122.361 135.38 122.335 135.437 122.332 135.497V137.646C122.336 137.705 122.361 137.76 122.404 137.8C122.447 137.841 122.504 137.863 122.563 137.863C122.621 137.863 122.676 137.84 122.717 137.799C122.758 137.759 122.781 137.703 122.781 137.646V135.497C122.781 135.438 122.758 135.381 122.718 135.338C122.678 135.295 122.622 135.269 122.563 135.266Z" fill="#F7BE56"/>
<path d="M137.469 122.944C137.469 122.886 137.446 122.831 137.405 122.79C137.364 122.749 137.309 122.727 137.251 122.727H135.102C135.043 122.726 134.986 122.749 134.943 122.789C134.9 122.83 134.875 122.885 134.871 122.944C134.871 123.005 134.895 123.064 134.939 123.108C134.982 123.151 135.041 123.175 135.102 123.175H137.251C137.281 123.175 137.31 123.169 137.338 123.158C137.365 123.146 137.39 123.129 137.41 123.107C137.43 123.085 137.446 123.06 137.456 123.032C137.466 123.004 137.471 122.974 137.469 122.944Z" fill="#F7BE56"/>
<path d="M110.242 122.944C110.238 122.885 110.212 122.83 110.169 122.789C110.126 122.749 110.069 122.726 110.01 122.727H107.862C107.804 122.727 107.749 122.749 107.708 122.79C107.667 122.831 107.644 122.886 107.644 122.944C107.642 122.974 107.646 123.004 107.656 123.032C107.667 123.06 107.682 123.085 107.703 123.107C107.723 123.129 107.748 123.146 107.775 123.158C107.802 123.169 107.832 123.175 107.862 123.175H110.01C110.072 123.175 110.131 123.151 110.174 123.108C110.217 123.064 110.242 123.005 110.242 122.944Z" fill="#F7BE56"/>
<path d="M133.103 112.406H132.791L131.267 113.929V114.242H131.58L133.103 112.719V112.406Z" fill="#F7BE56"/>
<path d="M113.846 131.66H113.533L112.01 133.183V133.496H112.322L113.846 131.973V131.66Z" fill="#F7BE56"/>
<path d="M133.103 133.496V133.183L131.58 131.66H131.267V131.973L132.791 133.496H133.103Z" fill="#F7BE56"/>
<path d="M113.846 114.242V113.929L112.322 112.406H112.01V112.719L113.533 114.242H113.846Z" fill="#F7BE56"/>
<path d="M116.851 109.168L116.729 109.467L117.558 111.453L117.844 111.575L117.966 111.276L117.15 109.29L116.851 109.168Z" fill="#F7BE56"/>
<path d="M127.269 134.328L127.146 134.627L127.976 136.613L128.262 136.735L128.384 136.436L127.568 134.451L127.269 134.328Z" fill="#F7BE56"/>
<path d="M136.34 117.243L136.041 117.121L134.055 117.937L133.933 118.236L134.232 118.359L136.218 117.529L136.34 117.243Z" fill="#F7BE56"/>
<path d="M111.18 127.665L110.881 127.543L108.895 128.373L108.773 128.658L109.072 128.781L111.057 127.965L111.18 127.665Z" fill="#F7BE56"/>
<path d="M128.262 109.168L127.976 109.29L127.146 111.276L127.269 111.575L127.568 111.453L128.384 109.467L128.262 109.168Z" fill="#F7BE56"/>
<path d="M117.844 134.328L117.558 134.451L116.729 136.436L116.851 136.735L117.15 136.613L117.966 134.627L117.844 134.328Z" fill="#F7BE56"/>
<path d="M136.34 128.658L136.218 128.373L134.232 127.543L133.933 127.665L134.055 127.965L136.041 128.781L136.34 128.658Z" fill="#F7BE56"/>
<path d="M111.18 118.236L111.057 117.937L109.072 117.121L108.773 117.243L108.895 117.529L110.881 118.359L111.18 118.236Z" fill="#F7BE56"/>
<path d="M106.189 96.901C105.756 96.302 105.168 95.8319 104.489 95.541C103.773 95.261 103.036 95.0382 102.285 94.8746V90.6586C102.813 90.7147 103.316 90.912 103.741 91.2298C104.014 91.4692 104.237 91.7611 104.396 92.0881C104.555 92.4151 104.646 92.7707 104.665 93.1338L106.352 93.0114C106.324 92.2676 106.099 91.5447 105.699 90.917C105.265 90.3021 104.66 89.829 103.958 89.557C103.421 89.3495 102.858 89.2168 102.285 89.1626V86.6602H100.64V89.1081C100.048 89.1524 99.4654 89.2853 98.9127 89.5026C98.2316 89.7723 97.6517 90.2477 97.2535 90.8625C96.8813 91.4177 96.6825 92.071 96.6823 92.7394C96.6784 93.3205 96.8387 93.8909 97.1447 94.385C97.4843 94.9073 97.9527 95.3335 98.5047 95.6225C99.1914 95.918 99.907 96.1413 100.64 96.289V101.063C100.322 101.009 100.011 100.917 99.7151 100.791C99.1739 100.58 98.7027 100.222 98.3551 99.7569C98.0411 99.2665 97.8542 98.7057 97.8111 98.125L96.1519 98.261C96.1825 99.1091 96.446 99.9325 96.9135 100.641C97.3841 101.344 98.051 101.892 98.8311 102.219C99.4166 102.441 100.03 102.583 100.653 102.64V105.129H102.285V102.708C103.012 102.682 103.727 102.521 104.393 102.232C105.084 101.919 105.669 101.414 106.08 100.777C106.478 100.186 106.691 99.4901 106.692 98.7777C106.718 98.1157 106.542 97.4613 106.189 96.901ZM100.64 94.4802C100.015 94.352 99.4199 94.1075 98.8855 93.7594C98.7194 93.6109 98.5872 93.4283 98.498 93.2241C98.4088 93.0199 98.3647 92.7989 98.3687 92.5762C98.3791 92.3084 98.4507 92.0467 98.578 91.8109C98.7053 91.5752 98.8849 91.3717 99.1031 91.2162C99.5554 90.8967 100.087 90.7084 100.64 90.6722V94.4802ZM104.72 100.056C104.425 100.435 104.029 100.723 103.577 100.886C103.173 101.021 102.752 101.103 102.326 101.131V96.6969C102.897 96.8465 103.319 96.969 103.537 97.0506C103.999 97.2018 104.412 97.4741 104.733 97.8394C104.974 98.1497 105.1 98.5346 105.087 98.9273C105.088 99.3331 104.959 99.7286 104.72 100.056Z" fill="#32E0C4"/>
</svg>
