<svg width="20" height="18" viewBox="0 0 20 18" fill="none" xmlns="http://www.w3.org/2000/svg">
<path d="M8.93783 9.1566L0.440487 3.30476C-0.146829 2.90029 -0.146829 2.24626 0.440487 1.8461L1.85255 0.873662C2.43986 0.469196 3.38957 0.469196 3.97063 0.873662L9.99375 5.02159L16.0169 0.873662C16.6042 0.469196 17.5539 0.469196 18.135 0.873662L19.5595 1.8418C20.1468 2.24626 20.1468 2.90029 19.5595 3.30046L11.0622 9.1523C10.4749 9.56107 9.52515 9.56107 8.93783 9.1566ZM11.0622 17.418L19.5595 11.5662C20.1468 11.1617 20.1468 10.5077 19.5595 10.1075L18.1475 9.13509C17.5601 8.73063 16.6104 8.73063 16.0294 9.13509L10 13.2787L3.97688 9.13079C3.38957 8.72632 2.43986 8.72632 1.85879 9.13079L0.440487 10.1032C-0.146829 10.5077 -0.146829 11.1617 0.440487 11.5619L8.93783 17.4137C9.52515 17.8225 10.4749 17.8225 11.0622 17.418Z" fill="white"/>
</svg>
